<?xml version="1.0" encoding="UTF-8" standalone="no"?>
<svg id="svg5393" xmlns:rdf="http://www.w3.org/1999/02/22-rdf-syntax-ns#" xmlns="http://www.w3.org/2000/svg" height="332.46mm" width="142.09mm" version="1.1" xmlns:cc="http://creativecommons.org/ns#" xmlns:dc="http://purl.org/dc/elements/1.1/" viewBox="0 0 503.48266 1177.9999">
<g id="layer1" transform="translate(1662.9 1855.2)">
<g id="g4423" transform="matrix(7.8661 0 0 7.8661 11418 4649.5)" clip-rule="evenodd" fill="#ffdd02">
<g fill-rule="evenodd">
<polygon id="polygon76" style="image-rendering:optimizeQuality;shape-rendering:geometricPrecision" transform="matrix(3.5433 0 0 3.5433 -2281.1 -868.31)" points="187.06 12.361 188.13 12.561 189.11 11.681 189.23 12.816 190.35 13.56 189.28 14.192 189.09 15.494 188.14 14.583 186.83 14.823 187.42 13.608" class="fil3"/>
<polygon id="polygon78" style="image-rendering:optimizeQuality;shape-rendering:geometricPrecision" transform="matrix(3.5433 0 0 3.5433 -2281.1 -868.31)" points="184.67 22.202 185.65 22.377 186.6 21.602 186.75 22.833 187.8 23.361 186.7 23.984 186.52 25.151 185.77 24.336 184.56 24.44 185.05 23.473" class="fil3"/>
<polygon id="polygon80" style="image-rendering:optimizeQuality;shape-rendering:geometricPrecision" transform="matrix(3.5433 0 0 3.5433 -2281.1 -868.31)" points="189.6 24.896 190.56 25.111 191.44 24.336 191.56 25.415 192.53 26.015 191.52 26.526 191.46 27.781 190.67 26.91 189.52 27.014 190.09 26.087" class="fil3"/>
<polygon id="polygon82" style="image-rendering:optimizeQuality;shape-rendering:geometricPrecision" transform="matrix(3.5433 0 0 3.5433 -2281.1 -868.31)" points="179.06 45.152 180.16 45.36 180.89 44.593 181.11 45.792 181.99 46.336 180.96 46.895 180.92 47.934 180.17 47.263 178.93 47.327 179.52 46.288" class="fil3"/>
<polygon id="polygon84" style="image-rendering:optimizeQuality;shape-rendering:geometricPrecision" transform="matrix(3.5433 0 0 3.5433 -2281.1 -868.31)" points="174.57 51.652 175.43 51.723 176.04 50.972 176.28 51.979 177.06 52.475 176.29 52.859 176.11 53.946 175.49 53.274 174.47 53.402 175.04 52.643" class="fil3"/>
</g>
<path id="path86" style="image-rendering:optimizeQuality;shape-rendering:geometricPrecision" d="m-1657.9-684.01c-0.355 0.46134 0.3441 1.0028 0.692 0.55028l0.5514-0.69343c0.355-0.46169-0.3445-1.0024-0.6921-0.55027l-0.5513 0.69342zm43.595-133.88c0.1386-0.55489-0.7178-0.76571-0.8582-0.2041l-0.2069 0.86138c-0.1385 0.55453 0.7179 0.76571 0.8582 0.20409l0.2069-0.86137zm-0.6204 2.5841c0.1385-0.55488-0.7179-0.76571-0.8582-0.20409l-0.2066 0.86137c-0.1385 0.55453 0.7179 0.76571 0.8582 0.2041l0.2066-0.86138zm-0.6201 2.5841c0.1386-0.55488-0.7179-0.7657-0.8582-0.20409l-0.2069 0.86138c-0.1385 0.55453 0.7179 0.76571 0.8582 0.20409l0.2069-0.86138zm-0.6204 2.5841c0.1385-0.55488-0.7179-0.76571-0.8582-0.2041l-0.2066 0.86138c-0.1385 0.55453 0.7179 0.76571 0.8582 0.2041l0.2066-0.86138zm-0.6201 2.5841c0.1385-0.55488-0.7179-0.76571-0.8582-0.20409l-0.2069 0.86138c-0.1386 0.55452 0.7179 0.7657 0.8582 0.20409l0.2069-0.86138zm-0.6204 2.5841c0.1385-0.55489-0.7179-0.76571-0.8582-0.2041l-0.2066 0.86138c-0.1385 0.55453 0.7179 0.76571 0.8582 0.20409l0.2066-0.86137zm-0.6201 2.5841c0.1385-0.55488-0.7179-0.76571-0.8582-0.20409l-0.2069 0.86137c-0.1386 0.55453 0.7179 0.76571 0.8582 0.2041l0.2069-0.86138zm-0.6204 2.5841c0.1385-0.55488-0.7179-0.76571-0.8582-0.20409l-0.2066 0.86138c-0.1385 0.55452 0.7179 0.76571 0.8582 0.20409l0.2066-0.86138zm-0.6201 2.5841c0.1385-0.55488-0.7179-0.76571-0.8582-0.2041l-0.2069 0.86138c-0.1386 0.55453 0.7178 0.76571 0.8582 0.2041l0.2069-0.86138zm-0.6205 2.5841c0.1386-0.55488-0.7178-0.76571-0.8581-0.20409l-0.2066 0.86137c-0.1386 0.55453 0.7179 0.76571 0.8582 0.2041l0.2065-0.86138zm-0.6197 2.5841c0.1386-0.55489-0.7178-0.76571-0.8582-0.2041l-0.2065 0.86102c-0.1386 0.55453 0.7178 0.76607 0.8581 0.2041l0.2066-0.86102zm-0.6201 2.5838c0.1386-0.55488-0.7178-0.7657-0.8581-0.20409l-0.2066 0.86102c-0.1386 0.55453 0.7179 0.76607 0.8582 0.2041l0.2065-0.86103zm16.544 15.167c0.2576-0.51484-0.4943-0.91523-0.7821-0.41173v0.003c-0.2576 0.5152 0.4943 0.91524 0.7821 0.41173v-0.003zm-0.8278 1.5704c0.2576-0.51484-0.4943-0.91559-0.782-0.41173l-0.4131 0.78378c-0.2576 0.51519 0.4943 0.91523 0.782 0.41173l0.4131-0.78378zm-1.2394 2.3513c0.2576-0.51485-0.4943-0.91559-0.782-0.41174l-0.4132 0.78378c-0.2576 0.5152 0.4943 0.91524 0.782 0.41174l0.4132-0.78378zm-1.2395 2.3513c0.2576-0.51485-0.4942-0.91559-0.782-0.41174l-0.4131 0.78378c-0.2576 0.5152 0.4943 0.91524 0.782 0.41174l0.4131-0.78378zm-1.2394 2.351c0.2576-0.51484-0.4943-0.91524-0.782-0.41173l-0.4132 0.78378c-0.2576 0.51519 0.4943 0.91523 0.782 0.41173l0.4132-0.78378zm-1.2395 2.351c0.2576-0.51484-0.4942-0.91523-0.782-0.41173l-0.4131 0.78378c-0.2576 0.5152 0.4943 0.91524 0.782 0.41173l0.4131-0.78378zm-1.2391 2.351c0.2573-0.51484-0.4942-0.91524-0.782-0.41173l-0.4131 0.78378c-0.2576 0.51519 0.4943 0.91523 0.782 0.41173l0.4131-0.78378zm-1.239 2.351c0.2576-0.51519-0.4947-0.91488-0.7821-0.41173l-0.4131 0.78378c-0.2572 0.51484 0.4943 0.91524 0.782 0.41173l0.4132-0.78378zm-1.2391 2.351c0.2576-0.51555-0.495-0.91453-0.782-0.41174l-0.4132 0.78378c-0.2576 0.51556 0.4946 0.91453 0.782 0.41174l0.4132-0.78378zm-1.2391 2.351c0.2576-0.51555-0.495-0.91453-0.782-0.41173l-0.4132 0.78378c-0.2576 0.51555 0.4947 0.91453 0.782 0.41173l0.4132-0.78378zm-1.2391 2.351c0.2576-0.51556-0.495-0.91453-0.782-0.41174l-0.4132 0.78378c-0.2576 0.51555 0.4947 0.91453 0.782 0.41174l0.4132-0.78378zm-1.2391 2.351c0.2576-0.51555-0.495-0.91453-0.782-0.41173l-0.4132 0.78378c-0.2576 0.51555 0.4947 0.91452 0.782 0.41173l0.4132-0.78378zm-1.2391 2.351c0.2576-0.51555-0.495-0.91452-0.782-0.41173l-0.4132 0.78378c-0.2576 0.51555 0.4947 0.91453 0.782 0.41173l0.4132-0.78378zm-1.2391 2.351c0.2576-0.51555-0.495-0.91453-0.782-0.41173l-0.4132 0.78378c-0.2576 0.51555 0.4947 0.91452 0.782 0.41173l0.4132-0.78378zm-1.2391 2.351c0.2576-0.5159-0.495-0.91452-0.782-0.41173l-0.4132 0.78343c-0.2576 0.51555 0.4947 0.91488 0.782 0.41173l0.4132-0.78343zm-1.2391 2.3506c0.2576-0.51555-0.495-0.91452-0.782-0.41173l-0.4132 0.78378c-0.2576 0.51555 0.4947 0.91453 0.782 0.41173l0.4132-0.78378zm-1.2391 2.351c0.2576-0.51591-0.495-0.91453-0.782-0.41174l-0.4132 0.78343c-0.2576 0.51555 0.4947 0.91488 0.7821 0.41173l0.4131-0.78342zm-1.2391 2.3506c0.2576-0.51555-0.495-0.91453-0.782-0.41174l-0.4131 0.78378c-0.2576 0.51556 0.4946 0.91453 0.782 0.41174l0.4131-0.78378zm-1.2391 2.351c0.2576-0.5159-0.495-0.91453-0.782-0.41173l-0.4131 0.78342c-0.2576 0.51556 0.4946 0.91489 0.782 0.41174l0.4131-0.78343zm-1.2391 2.3506c0.2576-0.51555-0.495-0.91453-0.782-0.41173l-0.4131 0.78378c-0.2576 0.51555 0.4946 0.91453 0.782 0.41173l0.4131-0.78378zm-1.2391 2.351c0.2576-0.51591-0.495-0.91453-0.782-0.41174l-0.4131 0.78343c-0.2576 0.51555 0.4946 0.91488 0.782 0.41173l0.4131-0.78342zm-1.2391 2.3506c0.2576-0.51555-0.495-0.91453-0.782-0.41174l-0.4131 0.78378c-0.2576 0.51556 0.4946 0.91453 0.782 0.41174l0.4131-0.78378zm-1.2391 2.351c0.258-0.5159-0.4946-0.91453-0.782-0.41173l-0.4128 0.78342c-0.2579 0.51556 0.4947 0.91489 0.782 0.41174l0.4128-0.78343zm-1.2387 2.3506c0.2576-0.51555-0.495-0.91453-0.782-0.41173l-0.4132 0.78378c-0.2576 0.51555 0.4947 0.91453 0.782 0.41173l0.4132-0.78378zm-1.2391 2.351c0.258-0.51591-0.4946-0.91453-0.782-0.41174l-0.4128 0.78343c-0.258 0.51555 0.4946 0.91488 0.782 0.41173l0.4128-0.78342zm-1.2387 2.3506c0.2576-0.51556-0.495-0.91453-0.782-0.41174l-0.4132 0.78378c-0.2576 0.51555 0.4947 0.91453 0.782 0.41173l0.4132-0.78377zm-1.2391 2.351c0.2579-0.51591-0.4947-0.91453-0.782-0.41173l-0.4128 0.78342c-0.258 0.51555 0.4946 0.91488 0.782 0.41173l0.4128-0.78342zm-1.2388 2.3506c0.2576-0.51555-0.495-0.91453-0.782-0.41173l-0.4131 0.78378c-0.2576 0.51555 0.4946 0.91452 0.782 0.41173l0.4131-0.78378zm-1.2391 2.351c0.258-0.5159-0.4946-0.91452-0.782-0.41173l-0.4128 0.78343c-0.2579 0.51555 0.4947 0.91488 0.782 0.41173l0.4128-0.78343zm-1.2387 2.3506c0.2576-0.51555-0.495-0.91452-0.782-0.41173l-0.1425 0.27036c-0.1605-0.31075-0.7217-0.35008-0.8333 0.0971l-0.2031 0.86244c-0.1385 0.55453 0.7204 0.76571 0.8618 0.20055l0.025-0.10098c0.1934 0.14669 0.501 0.14811 0.6622-0.13394l0.4132-0.78378zm-1.2391 2.351c0.258-0.51591-0.4946-0.91453-0.782-0.41173l-0.1857 0.35255c-0.074 0.0542-0.1314 0.13642-0.1601 0.25122l-0.035 0.14953c-0.1307 0.5237 0.6279 0.74126 0.8316 0.28772l0.3317-0.62929zm-0.1127-4.1202c-0.1385 0.55453 0.7204 0.76571 0.8618 0.20055l0.203-0.86209c0.1385-0.55488-0.7207-0.76535-0.8617-0.20055l-0.2031 0.86209zm0.6091-2.587c-0.1385 0.55453 0.7204 0.76571 0.8617 0.20055l0.2031-0.86208c0.1385-0.55489-0.7207-0.76536-0.8618-0.20055l-0.203 0.86208zm0.6091-2.587c-0.1385 0.55453 0.7204 0.76571 0.8617 0.20055l0.2027-0.86208c0.1386-0.55488-0.7203-0.76536-0.8617-0.20055l-0.2027 0.86208zm0.6088-2.5866c-0.1386 0.55453 0.7203 0.76571 0.8617 0.20055l0.2027-0.86244c0.1385-0.55453-0.7204-0.76536-0.8618-0.20055l-0.2026 0.86244zm0.6087-2.587c-0.1386 0.55453 0.7203 0.76571 0.8617 0.20055l0.2027-0.86208c0.1385-0.55489-0.7204-0.76536-0.8617-0.20056l-0.2027 0.86209zm0.6087-2.5866c-0.1385 0.55452 0.7204 0.7657 0.8618 0.20055l0.2026-0.86244c0.1386-0.55453-0.7203-0.76536-0.8617-0.20055l-0.2027 0.86244zm0.6088-2.587c-0.1386 0.55453 0.7203 0.76571 0.8617 0.20055l0.2027-0.86209c0.1385-0.55488-0.7204-0.76535-0.8618-0.20055l-0.2026 0.86209zm0.6087-2.5866c-0.1385 0.55453 0.7204 0.76571 0.8617 0.20055l0.2027-0.86244c0.1386-0.55453-0.7203-0.76535-0.8617-0.20055l-0.2027 0.86244zm0.6088-2.587c-0.1386 0.55453 0.7203 0.76571 0.8617 0.20055l0.2027-0.86208c0.1385-0.55488-0.7204-0.76536-0.8618-0.20055l-0.2026 0.86208zm0.6087-2.5866c-0.1386 0.55453 0.7203 0.76571 0.8617 0.20055l0.2027-0.86244c0.1385-0.55453-0.7204-0.76535-0.8617-0.20055l-0.2027 0.86244zm0.6087-2.587c-0.1385 0.55453 0.7204 0.76571 0.8618 0.20055l0.2026-0.86208c0.1386-0.55489-0.7203-0.76536-0.8617-0.20056l-0.2027 0.86209zm0.6088-2.5866c-0.1386 0.55452 0.7203 0.76571 0.8617 0.20055l0.2027-0.86244c0.1385-0.55453-0.7204-0.76536-0.8617-0.20055l-0.2027 0.86244zm0.6087-2.587c-0.1385 0.55453 0.7204 0.76571 0.8617 0.20055l0.2027-0.86209c0.1386-0.55488-0.7203-0.76535-0.8617-0.20055l-0.2027 0.86209zm0.6088-2.5866c-0.1386 0.55453 0.7203 0.76571 0.8617 0.20056l0.2027-0.86245c0.1385-0.55452-0.7204-0.76535-0.8618-0.20055l-0.2026 0.86244zm0.6087-2.587c-0.1386 0.55452 0.7203 0.7657 0.8617 0.20055l0.2027-0.86209c0.1385-0.55488-0.7204-0.76535-0.8617-0.20055l-0.2027 0.86209zm0.6084-2.5866c-0.1386 0.55453 0.7207 0.76571 0.8617 0.20055l0.203-0.86244c0.1386-0.55453-0.7207-0.76535-0.8617-0.20055l-0.203 0.86244zm0.6087-2.587c-0.1385 0.55453 0.7204 0.76571 0.8618 0.20055l0.2026-0.86208c0.1386-0.55488-0.7203-0.76536-0.8617-0.20055l-0.2027 0.86208zm0.6084-2.5866c-0.1385 0.55453 0.7207 0.76571 0.8617 0.20055l0.2031-0.86244c0.1385-0.55453-0.7207-0.76536-0.8618-0.20055l-0.203 0.86244zm0.6087-2.587c-0.1385 0.55453 0.7204 0.76571 0.8618 0.20055l0.2027-0.86209c0.1385-0.55488-0.7204-0.76535-0.8618-0.20055l-0.2027 0.86209zm0.6084-2.5866c-0.1385 0.55452 0.7207 0.7657 0.8618 0.20055l0.203-0.86244c0.1385-0.55453-0.7207-0.76536-0.8617-0.20056l-0.2031 0.86245zm0.6088-2.587c-0.1386 0.55452 0.7203 0.76571 0.8617 0.20055l0.2027-0.86209c0.1385-0.55488-0.7204-0.76535-0.8618-0.20055l-0.2026 0.86209zm0.6084-2.5866c-0.1386 0.55453 0.7207 0.76571 0.8617 0.20055l0.203-0.86244c0.1386-0.55452-0.7207-0.76535-0.8617-0.20055l-0.203 0.86244zm0.6087-2.587c-0.1385 0.55453 0.7204 0.76571 0.8617 0.20056l0.2027-0.86209c0.1385-0.55488-0.7203-0.76536-0.8617-0.20055l-0.2027 0.86208zm0.6084-2.5866c-0.1386 0.55453 0.7207 0.76571 0.8617 0.20055l0.203-0.86244c0.1386-0.55453-0.7207-0.76535-0.8617-0.20055l-0.203 0.86244zm0.6087-2.587c-0.1385 0.55453 0.7204 0.76571 0.8618 0.20055l0.2026-0.86208c0.1386-0.55489-0.7203-0.76536-0.8617-0.20055l-0.2027 0.86208zm0.6084-2.5866c-0.1385 0.55453 0.7207 0.76571 0.8617 0.20055l0.2031-0.86244c0.1385-0.55453-0.7207-0.76536-0.8618-0.20055l-0.203 0.86244zm0.6087-2.587c-0.1385 0.55453 0.7204 0.76571 0.8618 0.20055l0.2027-0.86209c0.1385-0.55488-0.7204-0.76535-0.8618-0.20055l-0.2027 0.86209zm0.6084-2.5866c-0.1385 0.55452 0.7207 0.7657 0.8618 0.20055l0.203-0.86244c0.1385-0.55453-0.7207-0.76536-0.8617-0.20056l-0.2031 0.86245zm0.6088-2.587c-0.1386 0.55452 0.7203 0.76571 0.8617 0.20055l0.2027-0.86209c0.1385-0.55488-0.7204-0.76535-0.8617-0.20055l-0.2027 0.86209zm0.6084-2.5866c-0.1386 0.55453 0.7207 0.76571 0.8617 0.20055l0.203-0.86244c0.1386-0.55452-0.7207-0.76535-0.8617-0.20055l-0.203 0.86244zm-19.618 82.897c0.355-0.4617-0.3441-1.0024-0.692-0.55028l-0.5514 0.69342c-0.355 0.4617 0.3441 1.0028 0.692 0.55028l0.5514-0.69342zm-1.6544 2.0803c0.3551-0.46169-0.344-1.0024-0.692-0.55027l-0.5513 0.69342c-0.3551 0.46134 0.344 1.0028 0.692 0.55028l0.5513-0.69343zm-1.654 2.0799c0.355-0.46169-0.3444-1.0024-0.692-0.55027l-0.5513 0.69342c-0.3551 0.46134 0.344 1.0028 0.692 0.55028l0.5513-0.69343zm-1.6544 2.0799c0.3551-0.46169-0.344-1.0024-0.692-0.55027l-0.5513 0.69342c-0.3551 0.46134 0.344 1.0028 0.692 0.55028l0.5513-0.69343zm-1.654 2.0799c0.3551-0.46169-0.3444-1.0024-0.692-0.55027l-0.5513 0.69342c-0.3551 0.46134 0.344 1.0028 0.692 0.55028l0.5513-0.69343zm-1.654 2.0799c0.355-0.4617-0.3444-1.0024-0.692-0.55028l-0.5513 0.69307c-0.3551 0.46169 0.344 1.0028 0.692 0.55028l0.5513-0.69307zm-1.654 2.0796c0.355-0.46169-0.3444-1.0024-0.692-0.55027l-0.5514 0.69342c-0.355 0.46134 0.3441 1.0028 0.692 0.55028l0.5514-0.69343zm-1.654 2.0799c0.355-0.46169-0.3444-1.0024-0.692-0.55027l-0.5514 0.69307c-0.355 0.46169 0.3441 1.0028 0.692 0.55027l0.5514-0.69307z" class="fil2"/>
</g>
</g>
</svg>
