<?xml version="1.0" encoding="UTF-8" standalone="no"?>
<svg id="svg5393" xmlns:rdf="http://www.w3.org/1999/02/22-rdf-syntax-ns#" xmlns="http://www.w3.org/2000/svg" height="332.46mm" width="189.9mm" version="1.1" xmlns:cc="http://creativecommons.org/ns#" xmlns:dc="http://purl.org/dc/elements/1.1/" viewBox="0 0 672.89119 1177.9999">
<g id="layer1" transform="translate(3278 3306.9)">
<g id="g4239" transform="matrix(7.6717 0 0 7.6717 21870 14203)" clip-rule="evenodd" fill="#ffdd02">
<g fill-rule="evenodd">
<polygon id="polygon440" style="image-rendering:optimizeQuality;shape-rendering:geometricPrecision" transform="matrix(3.5433 0 0 3.5433 -3636.3 -2571.2)" points="109.13 82.91 110.5 82.69 111.18 81.484 111.62 82.793 113.02 83.175 111.96 84.086 112.09 85.542 111.06 84.865 109.71 85.424 109.91 84.057" class="fil3"/>
<polygon id="polygon442" style="image-rendering:optimizeQuality;shape-rendering:geometricPrecision" transform="matrix(3.5433 0 0 3.5433 -3636.3 -2571.2)" points="101.12 122.75 102.2 122.56 102.64 121.59 103.18 122.63 104.31 122.75 103.46 123.66 103.68 124.8 102.58 124.3 101.7 124.82 101.86 123.69" class="fil3"/>
<polygon id="polygon444" style="image-rendering:optimizeQuality;shape-rendering:geometricPrecision" transform="matrix(3.5433 0 0 3.5433 -3636.3 -2571.2)" points="110.84 104.83 112.02 104.98 112.97 104.11 113.13 105.53 114.19 106.08 113.03 106.74 112.9 107.94 112.04 107.06 110.8 107.24 111.32 106.14" class="fil3"/>
<polygon id="polygon446" style="image-rendering:optimizeQuality;shape-rendering:geometricPrecision" transform="matrix(3.5433 0 0 3.5433 -3636.3 -2571.2)" points="122.38 98.83 123.41 98.551 124.11 97.419 124.64 98.507 125.88 98.742 125.02 99.683 125.24 101.05 124.14 100.42 123.08 101.14 123.17 99.771" class="fil3"/>
<polygon id="polygon448" style="image-rendering:optimizeQuality;shape-rendering:geometricPrecision" transform="matrix(3.5433 0 0 3.5433 -3636.3 -2571.2)" points="108.68 110 109.04 110.74 110.02 110.91 109.35 111.74 109.57 112.7 108.85 112.17 108.11 112.71 108.12 111.83 107.42 110.99 108.36 110.79" class="fil3"/>
</g>
<path id="path450" style="image-rendering:optimizeQuality;shape-rendering:geometricPrecision" d="m-3243.1-2273.1c-0.036-0.5718-0.9184-0.5141-0.8823 0.066l0.067 0.8833c0.036 0.5715 0.9184 0.5141 0.8823-0.066l-0.067-0.8834zm-8.28 99.566c0.258-0.5156-0.4946-0.9146-0.782-0.4118l-0.4139 0.7835c-0.2576 0.5155 0.4947 0.9145 0.782 0.4117l0.4139-0.7834zm-1.2416 2.3499c0.258-0.5159-0.4946-0.9145-0.782-0.4117l-0.4138 0.783c-0.2576 0.5156 0.4946 0.9149 0.782 0.4118l0.4138-0.7831zm-1.2415 2.3496c0.2579-0.5156-0.4947-0.9146-0.782-0.4118l-0.4139 0.7834c-0.2576 0.5156 0.4946 0.9146 0.782 0.4118l0.4139-0.7834zm-1.2416 2.3499c0.2579-0.5159-0.4947-0.9146-0.782-0.4118l-0.4139 0.7831c-0.2576 0.5156 0.4947 0.9149 0.782 0.4117l0.4139-0.783zm-1.2416 2.3495c0.258-0.5155-0.4946-0.9145-0.782-0.4117l-0.4139 0.7834c-0.2576 0.5156 0.4947 0.9146 0.7821 0.4118l0.4138-0.7835zm-1.2416 2.35c0.258-0.5159-0.4946-0.9146-0.782-0.4118l-0.4138 0.7831c-0.2576 0.5156 0.4946 0.9149 0.782 0.4117l0.4138-0.783zm-1.2415 2.3495c0.2579-0.5155-0.4947-0.9145-0.782-0.4117l-0.4139 0.7834c-0.2576 0.5156 0.4946 0.9145 0.782 0.4118l0.4139-0.7835zm-1.2413 2.35c0.2576-0.516-0.495-0.9146-0.782-0.4118l-0.4138 0.7831c-0.2576 0.5155 0.4946 0.9149 0.782 0.4117l0.4138-0.783zm-1.2412 2.3495c0.2576-0.5155-0.495-0.9145-0.782-0.4117l-0.4138 0.7834c-0.2576 0.5156 0.4946 0.9145 0.782 0.4117l0.4138-0.7834zm-1.2412 2.3499c0.2576-0.5159-0.495-0.9145-0.782-0.4117l-0.4139 0.7831c-0.2576 0.5155 0.4947 0.9149 0.782 0.4117l0.4139-0.7831zm-1.2412 2.3496c0.2576-0.5155-0.495-0.9145-0.782-0.4117l-0.4139 0.7834c-0.2576 0.5155 0.4947 0.9145 0.782 0.4117l0.4139-0.7834zm-1.2412 2.3499c0.2576-0.5159-0.495-0.9145-0.7821-0.4117l-0.4138 0.7831c-0.2576 0.5155 0.4946 0.9148 0.782 0.4117l0.4139-0.7831zm-1.2413 2.3496c0.2576-0.5156-0.495-0.9145-0.782-0.4117l-0.4138 0.7834c-0.2576 0.5155 0.4946 0.9145 0.782 0.4117l0.4138-0.7834zm-1.2412 2.3499c0.2576-0.5159-0.495-0.9145-0.782-0.4117l-0.4138 0.7831c-0.2576 0.5155 0.4946 0.9148 0.782 0.4117l0.4138-0.7831zm-1.2412 2.3496c0.2576-0.5156-0.495-0.9145-0.782-0.4118l-0.4139 0.7835c-0.2576 0.5155 0.4947 0.9145 0.782 0.4117l0.4139-0.7834zm-1.2412 2.3499c0.2576-0.5159-0.495-0.9145-0.782-0.4117l-0.4139 0.783c-0.2576 0.5156 0.4947 0.9149 0.782 0.4118l0.4139-0.7831zm-1.2412 2.3496c0.2576-0.5159-0.495-0.9146-0.7821-0.4118l-0.4138 0.7831c-0.2576 0.5156 0.4946 0.9145 0.782 0.4117l0.4139-0.783zm32.502-57.073c0.3111-0.484-0.4099-0.9616-0.7405-0.4844l-0.4861 0.7406c-0.3111 0.484 0.4099 0.962 0.7405 0.4844l0.4861-0.7406zm-1.458 2.222c0.3111-0.484-0.4103-0.9616-0.7406-0.4843l-0.4861 0.7405c-0.3111 0.4837 0.4099 0.9617 0.7405 0.4844l0.4862-0.7406zm-1.4581 2.2217c0.3111-0.484-0.4103-0.9617-0.7405-0.4844l-0.4862 0.7406c-0.3111 0.484 0.41 0.962 0.7406 0.4843l0.4861-0.7405zm-1.4581 2.222c0.3111-0.484-0.4103-0.9617-0.7405-0.4844l-0.4862 0.7406c-0.3111 0.4836 0.41 0.9616 0.7406 0.4843l0.4861-0.7405zm-1.458 2.2216c0.3111-0.484-0.4104-0.9616-0.7406-0.4843l-0.4861 0.7405c-0.3111 0.4837 0.4099 0.9617 0.7405 0.4844l0.4862-0.7406zm-1.4581 2.2217c0.3111-0.484-0.41-0.9617-0.7406-0.4844l-0.4857 0.7406c-0.3111 0.4836 0.4099 0.9616 0.7405 0.4843l0.4858-0.7405zm-1.4577 2.2216c0.3111-0.484-0.4103-0.9616-0.7406-0.4843l-0.4861 0.7405c-0.3111 0.4837 0.4099 0.9617 0.7405 0.4844l0.4862-0.7406zm-1.4581 2.2217c0.3111-0.484-0.41-0.9617-0.7405-0.4844l-0.4858 0.7406c-0.3111 0.4836 0.4099 0.9616 0.7405 0.4843l0.4858-0.7405zm50.601-40.04c0.496-0.2835 0.057-1.0489-0.4465-0.7611l-0.7646 0.4475c-0.4958 0.2831-0.057 1.0488 0.4464 0.7611l0.7647-0.4475zm-2.2936 1.3425c0.4957-0.2834 0.057-1.0488-0.4465-0.7611l-0.7646 0.4475c-0.4957 0.2832-0.057 1.0489 0.4464 0.7611l0.7647-0.4475zm-2.2936 1.3426c0.4961-0.2835 0.057-1.0488-0.4465-0.7611l-0.7643 0.4475c-0.4957 0.2831-0.057 1.0488 0.4465 0.7611l0.7643-0.4475zm-2.2932 1.3425c0.4957-0.2834 0.057-1.0488-0.4465-0.7611l-0.7646 0.4476c-0.4957 0.2831-0.057 1.0488 0.4464 0.7611l0.7647-0.4476zm-2.2936 1.3426c0.496-0.2835 0.057-1.0488-0.4465-0.7611l-0.7643 0.4475c-0.4957 0.2831-0.057 1.0488 0.4465 0.7611l0.7643-0.4475zm-2.2932 1.3426c0.4957-0.2835 0.057-1.0489-0.4465-0.7611l-0.7647 0.4475c-0.4957 0.2831-0.057 1.0488 0.4465 0.7611l0.7647-0.4475zm-2.2936 1.3425c0.496-0.2834 0.057-1.0488-0.4465-0.7611l-0.7643 0.4475c-0.4957 0.2831-0.057 1.0489 0.4465 0.7611l0.7643-0.4475zm-2.2933 1.3426c0.4957-0.2835 0.057-1.0488-0.4464-0.7611l-0.7647 0.4475c-0.4957 0.2831-0.057 1.0488 0.4465 0.7611l0.7646-0.4475zm-2.2935 1.3425c0.496-0.2834 0.057-1.0488-0.4465-0.7611l-0.7643 0.4476c-0.4957 0.2831-0.057 1.0488 0.4465 0.7611l0.7643-0.4476zm-2.2933 1.3426c0.4957-0.2835 0.057-1.0488-0.4464-0.7611l-0.7647 0.4475c-0.4957 0.2831-0.057 1.0488 0.4465 0.7611l0.7646-0.4475zm-2.2936 1.3426c0.4961-0.2835 0.057-1.0489-0.4464-0.7611l-0.7643 0.4475c-0.4957 0.2831-0.057 1.0488 0.4465 0.7611l0.7642-0.4475zm-2.2932 1.3425c0.4957-0.2834 0.057-1.0488-0.4464-0.7611l-0.7647 0.4475c-0.4957 0.2831-0.057 1.0489 0.4465 0.7611l0.7646-0.4475zm-2.2936 1.3426c0.4961-0.2835 0.057-1.0488-0.4464-0.7611l-0.7643 0.4475c-0.4957 0.2831-0.057 1.0488 0.4464 0.7611l0.7643-0.4475zm-2.2932 1.3425c0.4957-0.2834 0.057-1.0488-0.4464-0.7611l-0.7647 0.4476c-0.4957 0.2831-0.057 1.0488 0.4465 0.7611l0.7646-0.4476zm-2.2936 1.3426c0.4961-0.2835 0.057-1.0488-0.4464-0.7615l-0.7643 0.4476c-0.4957 0.2834-0.057 1.0488 0.4464 0.7611l0.7643-0.4472zm-2.2932 1.3422c0.4957-0.2835 0.057-1.0488-0.4465-0.7611l-0.7646 0.4472c-0.4957 0.2834-0.057 1.0488 0.4465 0.7611l0.7646-0.4472zm-2.2936 1.3422c0.4961-0.2835 0.057-1.0488-0.4464-0.7611l-0.7643 0.4472c-0.4957 0.2834-0.057 1.0488 0.4464 0.7611l0.7643-0.4472zm-3.044 0.5046c0.036 0.5719 0.9184 0.5145 0.8822-0.066l-0.051-0.675c-0.036-0.5719-0.9185-0.5142-0.8823 0.066l0.051 0.675zm-0.1861-2.4417c0.035 0.5715 0.9185 0.5141 0.8823-0.066l-0.067-0.8834c-0.036-0.5722-0.9184-0.5145-0.8823 0.066l0.067 0.8834zm-0.2019-2.6504c0.035 0.5719 0.9184 0.5145 0.8822-0.066l-0.067-0.8834c-0.036-0.5719-0.9184-0.5141-0.8823 0.066l0.067 0.8834zm-0.202-2.6501c0.035 0.5719 0.9184 0.5145 0.8823-0.066l-0.067-0.8833c-0.036-0.5719-0.9185-0.5141-0.8823 0.066l0.067 0.8833zm-0.202-2.65c0.035 0.5719 0.9185 0.5145 0.8823-0.066l-0.067-0.8833c-0.036-0.5719-0.9184-0.5142-0.8823 0.066l0.067 0.8833zm-0.2019-2.65c0.035 0.5719 0.9184 0.5145 0.8822-0.066l-0.067-0.8834c-0.035-0.5719-0.9184-0.5141-0.8823 0.066l0.067 0.8834zm-0.2017-2.6501c0.035 0.5719 0.9185 0.5145 0.8823-0.066l-0.067-0.8833c-0.035-0.5719-0.9184-0.5142-0.8823 0.066l0.067 0.8833zm-0.2016-2.65c0.035 0.5719 0.9185 0.5145 0.8823-0.066l-0.067-0.8834c-0.035-0.5719-0.9184-0.5141-0.8823 0.066l0.067 0.8834zm-0.2016-2.6501c0.035 0.5719 0.9184 0.5145 0.8823-0.066l-0.067-0.8833c-0.035-0.5719-0.9184-0.5141-0.8823 0.066l0.067 0.8833zm-0.2016-2.65c0.035 0.5719 0.9184 0.5145 0.8823-0.066l-0.067-0.8833c-0.035-0.5719-0.9185-0.5142-0.8823 0.066l0.067 0.8833zm-0.2016-2.65c0.035 0.5719 0.9184 0.5145 0.8823-0.066l-0.067-0.8834c-0.035-0.5719-0.9185-0.5141-0.8823 0.066l0.067 0.8834zm-0.2016-2.6501c0.035 0.5719 0.9184 0.5145 0.8823-0.066l-0.067-0.8833c-0.035-0.5719-0.9184-0.5142-0.8822 0.066l0.067 0.8833zm-0.2016-2.6497c0.035 0.5716 0.9184 0.5142 0.8822-0.066l-0.067-0.8833c-0.035-0.5719-0.9184-0.5141-0.8823 0.066l0.067 0.8833zm-0.2017-2.6496c0.035 0.5715 0.9185 0.5141 0.8823-0.066l-0.067-0.8833c-0.035-0.5719-0.9184-0.5141-0.8823 0.066l0.067 0.8834zm-0.2016-2.6497c0.035 0.5715 0.9185 0.5141 0.8823-0.066l-0.067-0.8834c-0.035-0.5719-0.9184-0.5141-0.8823 0.066l0.067 0.8834zm-0.2016-2.6497c0.035 0.5715 0.9184 0.5141 0.8823-0.066l-0.067-0.8834c-0.035-0.5719-0.9184-0.5141-0.8823 0.066l0.067 0.8834zm-0.2016-2.6497c0.035 0.5715 0.9184 0.5141 0.8823-0.066l-0.067-0.8834c-0.035-0.5718-0.9185-0.5141-0.8823 0.066l0.067 0.8833zm-0.2016-2.6497c0.035 0.5716 0.9184 0.5142 0.8823-0.066l-0.067-0.8833c-0.035-0.5719-0.9185-0.5142-0.8823 0.066l0.067 0.8833zm-0.2016-2.6497c0.035 0.5716 0.9184 0.5142 0.8823-0.066l-0.067-0.8833c-0.035-0.5719-0.9184-0.5142-0.8822 0.066l0.067 0.8833zm-0.2016-2.6497c0.036 0.5716 0.9184 0.5142 0.8822-0.066l-0.067-0.8833c-0.036-0.5719-0.9184-0.5141-0.8823 0.066l0.067 0.8833zm-0.2013-2.6496c0.035 0.5715 0.9184 0.5141 0.8823-0.066l-0.067-0.8834c-0.035-0.5719-0.9185-0.5141-0.8823 0.066l0.067 0.8834zm-0.2016-2.6497c0.036 0.5715 0.9184 0.5141 0.8823-0.066l-0.067-0.8834c-0.036-0.5719-0.9184-0.5141-0.8823 0.066l0.067 0.8834zm-0.2013-2.6497c0.035 0.5715 0.9185 0.5141 0.8823-0.066l-0.067-0.8834c-0.035-0.5719-0.9184-0.5141-0.8823 0.066l0.067 0.8834zm-0.2016-2.6497c0.036 0.5715 0.9184 0.5141 0.8823-0.066l-0.067-0.8833c-0.036-0.5719-0.9184-0.5142-0.8823 0.066l0.067 0.8833zm-0.2012-2.6497c0.035 0.5716 0.9184 0.5142 0.8822-0.066l-0.067-0.8833c-0.035-0.5719-0.9184-0.5142-0.8823 0.066l0.067 0.8833zm-0.2017-2.6497c0.036 0.5716 0.9185 0.5142 0.8823-0.066l-0.067-0.8833c-0.036-0.5719-0.9185-0.5142-0.8823 0.066l0.067 0.8833zm-0.2012-2.6496c0.035 0.5715 0.9184 0.5141 0.8823-0.066l-0.067-0.8833c-0.035-0.5719-0.9184-0.5141-0.8822 0.066l0.067 0.8834zm-0.2016-2.6497c0.036 0.5715 0.9184 0.5141 0.8822-0.066l-0.067-0.8834c-0.036-0.5719-0.9184-0.5141-0.8823 0.066l0.067 0.8834zm-0.2013-2.6497c0.035 0.5715 0.9184 0.5141 0.8823-0.066l-0.067-0.8834c-0.035-0.5719-0.9185-0.5141-0.8823 0.066l0.067 0.8834z" class="fil2"/>
</g>
</g>
</svg>
