<?xml version="1.0" encoding="UTF-8" standalone="no"?>
<svg id="svg5393" xmlns:rdf="http://www.w3.org/1999/02/22-rdf-syntax-ns#" xmlns="http://www.w3.org/2000/svg" height="332.46mm" width="144.72mm" version="1.1" xmlns:cc="http://creativecommons.org/ns#" xmlns:dc="http://purl.org/dc/elements/1.1/" viewBox="0 0 512.78053 1177.9999">
<g id="layer1" transform="translate(4372.9 5558)">
<g id="g4258" transform="matrix(7.5147 0 0 7.5147 35002 32493)" clip-rule="evenodd" fill="#ffdd02">
<g fill-rule="evenodd">
<polygon id="polygon516" style="image-rendering:optimizeQuality;shape-rendering:geometricPrecision" transform="matrix(3.5433 0 0 3.5433 -6095 -5602.5)" points="258.52 153.17 258.97 152.12 259.54 153.3 260.63 153.36 259.8 154.13 259.96 155.28 259.19 154.99 258.14 155.4 258.33 154.29 257.5 153.46" class="fil3"/>
<polygon id="polygon518" style="image-rendering:optimizeQuality;shape-rendering:geometricPrecision" transform="matrix(3.5433 0 0 3.5433 -6095 -5602.5)" points="257.12 159.09 257.98 158.63 257.89 159.38 258.54 160.16 257.66 160.39 257.38 161.33 256.93 160.44 256.04 160.44 256.55 159.59 256.36 158.72" class="fil3"/>
<polygon id="polygon520" style="image-rendering:optimizeQuality;shape-rendering:geometricPrecision" transform="matrix(3.5433 0 0 3.5433 -6095 -5602.5)" points="252.01 158.63 251.43 158.1 251.52 157.02 250.7 157.54 249.98 157.19 250.17 158.11 249.53 158.8 250.4 158.9 250.82 159.66 251.26 158.73" class="fil3"/>
<polygon id="polygon522" style="image-rendering:optimizeQuality;shape-rendering:geometricPrecision" transform="matrix(3.5433 0 0 3.5433 -6095 -5602.5)" points="247.61 159.8 248.37 159.26 248.28 160.15 248.93 160.82 248.08 161.05 247.82 161.81 247.33 161.09 246.34 160.97 246.98 160.29 246.88 159.33" class="fil3"/>
<polygon id="polygon524" style="image-rendering:optimizeQuality;shape-rendering:geometricPrecision" transform="matrix(3.5433 0 0 3.5433 -6095 -5602.5)" points="259.41 195.52 260.33 195.33 259.67 194.83 259.74 193.75 258.98 194.32 258.21 193.82 258.39 194.84 257.77 195.54 258.68 195.57 259.11 196.36" class="fil3"/>
<polygon id="polygon526" style="image-rendering:optimizeQuality;shape-rendering:geometricPrecision" transform="matrix(3.5433 0 0 3.5433 -6095 -5602.5)" points="256.9 193.04 257.3 192 258.4 191.64 257.65 190.93 257.77 189.72 256.79 190.24 255.82 189.83 255.95 190.96 255.27 191.8 256.33 192.03" class="fil3"/>
<polygon id="polygon528" style="image-rendering:optimizeQuality;shape-rendering:geometricPrecision" transform="matrix(3.5433 0 0 3.5433 -6095 -5602.5)" points="255.51 165.34 256 164.96 256.03 165.57 256.41 165.92 255.76 166.08 255.59 166.54 255.26 166.15 254.66 166.11 255.07 165.65 254.93 164.93" class="fil3"/>
<polygon id="polygon530" style="image-rendering:optimizeQuality;shape-rendering:geometricPrecision" transform="matrix(3.5433 0 0 3.5433 -6095 -5602.5)" points="254.81 172.08 255.56 171.45 255.49 172.38 256.11 172.83 255.21 173.06 254.98 173.88 254.5 173.16 253.54 173.03 254.2 172.45 254 171.48" class="fil3"/>
<polygon id="polygon532" style="image-rendering:optimizeQuality;shape-rendering:geometricPrecision" transform="matrix(3.5433 0 0 3.5433 -6095 -5602.5)" points="244.15 180.49 243.92 179.51 244.67 179.73 245.5 179.28 245.38 180.39 246.01 180.88 245.18 181.12 244.78 182.03 244.47 181.15 243.56 180.93" class="fil3"/>
<polygon id="polygon534" style="image-rendering:optimizeQuality;shape-rendering:geometricPrecision" transform="matrix(3.5433 0 0 3.5433 -6095 -5602.5)" points="243.44 174.56 243.47 175.56 244.08 176.28 243.18 176.42 242.79 177.35 242.39 176.56 241.37 176.44 241.99 175.71 241.82 174.66 242.64 175.14" class="fil3"/>
<polygon id="polygon536" style="image-rendering:optimizeQuality;shape-rendering:geometricPrecision" transform="matrix(3.5433 0 0 3.5433 -6095 -5602.5)" points="243.89 167.33 244.56 166.85 244.55 167.8 245.2 168.32 244.36 168.53 244.12 169.33 243.68 168.59 242.79 168.52 243.44 167.96 243.26 166.93" class="fil3"/>
</g>
<path id="path538" style="image-rendering:optimizeQuality;shape-rendering:geometricPrecision" d="m-5230.5-5009.7c-0.2441 0.523 0.5379 0.9 0.7958 0.3841l0.3845-0.798c0.2441-0.5233-0.5383-0.8996-0.7959-0.3841l-0.3844 0.798zm50.538 95.033c0.282 0.4936 1.0474 0.053 0.7579-0.4532l-0.455-0.7601c-0.282-0.4935-1.0474-0.054-0.7579 0.4532l0.455 0.7601zm-1.3653-2.2801c0.2821 0.4935 1.0471 0.053 0.758-0.4532l-0.4554-0.7601c-0.2817-0.4932-1.047-0.053-0.7579 0.4532l0.4553 0.7601zm-1.3655-2.2798c0.282 0.4936 1.0474 0.053 0.7579-0.4532l-0.455-0.76c-0.282-0.4933-1.0474-0.053-0.7579 0.4532l0.455 0.76zm-1.3653-2.2798c0.2821 0.4936 1.0474 0.053 0.7579-0.4532l-0.4549-0.76c-0.2817-0.4932-1.0474-0.053-0.7579 0.4532l0.4549 0.76zm-49.932-55.234c-0.2576-0.5152-1.0463-0.1201-0.7891 0.3944l0.3962 0.7923c0.2572 0.5148 1.0463 0.1201 0.7891-0.3944l-0.3962-0.7923zm1.1885 2.3768c-0.2576-0.5148-1.0464-0.1197-0.7891 0.3944l0.3961 0.7923c0.2573 0.5152 1.0463 0.1201 0.7891-0.3944l-0.3961-0.7923zm1.1884 2.3769c-0.2576-0.5148-1.0464-0.1198-0.7891 0.3944l0.3961 0.7923c0.2573 0.5151 1.0464 0.1201 0.7891-0.3944l-0.3961-0.7923zm1.1884 2.3768c-0.2576-0.5148-1.0463-0.1197-0.7891 0.3944l0.3962 0.7923c0.2572 0.5152 1.0463 0.1201 0.7891-0.3944l-0.3962-0.7923zm1.1884 2.3769c-0.2576-0.5148-1.0463-0.1198-0.7891 0.3944l0.3962 0.7923c0.2572 0.5151 1.0463 0.1201 0.7891-0.3944l-0.3962-0.7923zm1.1885 2.3768c-0.2576-0.5148-1.0464-0.1197-0.7891 0.3944l0.3961 0.7923c0.2573 0.5152 1.0463 0.1201 0.7891-0.3944l-0.3961-0.7923zm-2.5314-40.789c0.1045-0.5585-0.7646-0.7161-0.872-0.1418l-0.1431 0.8742c-0.1046 0.5584 0.7643 0.7161 0.872 0.1417l0.1431-0.8741zm-0.4294 2.6227c0.1045-0.5581-0.7647-0.7157-0.872-0.1417l-0.1432 0.8745c-0.1045 0.558 0.7643 0.7161 0.872 0.1417l0.1432-0.8745zm-0.4295 2.6228c0.1046-0.5581-0.7646-0.7158-0.872-0.1418l-0.1431 0.8742c-0.1046 0.5584 0.7643 0.7161 0.872 0.1417l0.1431-0.8741zm-0.4294 2.6227c0.1045-0.5584-0.7647-0.7161-0.872-0.1417l-0.1432 0.8741c-0.1045 0.5581 0.7643 0.7161 0.872 0.1418l0.1432-0.8742zm-0.4291 2.6224c0.1045-0.558-0.7647-0.7157-0.872-0.1417l-0.1432 0.8741c-0.1045 0.5585 0.7643 0.7161 0.872 0.1418l0.1432-0.8742zm-0.4291 2.6228c0.1045-0.5584-0.7647-0.7161-0.872-0.1417l-0.1432 0.8741c-0.1045 0.5581 0.7643 0.7161 0.872 0.1417l0.1432-0.8741zm-0.4291 2.6224c0.1045-0.5581-0.7647-0.7158-0.872-0.1417l-0.1432 0.8741c-0.1045 0.5584 0.7643 0.7161 0.872 0.1417l0.1432-0.8741zm-0.4291 2.6224c0.1045-0.5581-0.7646-0.7158-0.872-0.1417l-0.1432 0.8741c-0.1045 0.5584 0.7643 0.7161 0.872 0.1417l0.1432-0.8741zm-0.4291 2.6224c0.1045-0.5581-0.7646-0.7158-0.872-0.1417l-0.1432 0.8741c-0.1045 0.5584 0.7643 0.7161 0.8721 0.1417l0.1431-0.8741zm-0.4291 2.6224c0.1045-0.5581-0.7646-0.7158-0.872-0.1417l-0.1431 0.8741c-0.1046 0.5584 0.7642 0.7161 0.872 0.1417l0.1431-0.8741zm7.9154 19.851c-0.4224-0.387-1.0176 0.2639-0.5917 0.6541l0.1949 0.1761c0.4223 0.3872 1.0176-0.2637 0.5917-0.6541l-0.1949-0.1761zm1.5098 1.3638c-0.4224-0.3873-1.0176 0.2636-0.5917 0.6541l0.6573 0.5938c0.4223 0.3873 1.0176-0.2636 0.5917-0.6541l-0.6573-0.5938zm1.9722 1.7816c-0.4224-0.3873-1.0176 0.2636-0.5917 0.654l0.6576 0.5939c0.4224 0.3873 1.0177-0.2636 0.5917-0.6541l-0.6576-0.5938zm1.9726 1.7815c-0.4224-0.3873-1.0177 0.2636-0.5918 0.6541l0.6573 0.5939c0.4224 0.3873 1.0177-0.2636 0.5918-0.6541l-0.6573-0.5939zm1.9722 1.7816c-0.4224-0.3873-1.0177 0.2636-0.5918 0.6541l0.6573 0.5939c0.4224 0.3872 1.0177-0.2637 0.5918-0.6541l-0.6573-0.5939zm1.9722 1.7816c-0.4224-0.3873-1.0177 0.2636-0.5918 0.6541l0.6573 0.5938c0.4224 0.3873 1.0177-0.2636 0.5918-0.6541l-0.6573-0.5938zm1.9718 1.7816c-0.4223-0.3873-1.0176 0.2636-0.5917 0.654l0.6573 0.5939c0.4223 0.3873 1.0176-0.2636 0.5917-0.6541l-0.6573-0.5938zm1.9722 1.7815c-0.4223-0.3873-1.0176 0.2636-0.5917 0.6541l0.6573 0.5939c0.4223 0.3873 1.0176-0.2636 0.5917-0.6541l-0.6573-0.5939zm1.9719 1.7812c-0.4224-0.3869-1.0177 0.264-0.5917 0.6541l0.6572 0.5939c0.4224 0.3873 1.0177-0.2636 0.5918-0.6541l-0.6573-0.5939zm1.9722 1.7813c-0.4224-0.387-1.0176 0.2639-0.5917 0.6541l0.6572 0.5938c0.4224 0.3873 1.0177-0.2636 0.5918-0.6541l-0.6573-0.5938zm1.9718 1.7812c-0.4223-0.3869-1.0176 0.264-0.5917 0.6541l0.6573 0.5938c0.4224 0.3873 1.0176-0.2636 0.5917-0.6541l-0.6573-0.5938zm1.9722 1.7812c-0.4223-0.3869-1.0176 0.264-0.5917 0.6541l0.6573 0.5939c0.4224 0.3872 1.0176-0.2637 0.5917-0.6541l-0.6573-0.5939zm1.9719 1.7812c-0.4224-0.3869-1.0176 0.264-0.5917 0.6541l0.6572 0.5939c0.4224 0.3873 1.0177-0.2636 0.5918-0.6541l-0.6573-0.5939zm1.9722 1.7812c-0.4224-0.3869-1.0176 0.264-0.5917 0.6541l0.6572 0.5939c0.4224 0.3873 1.0177-0.2636 0.5918-0.6541l-0.6573-0.5939zm1.9718 1.7813c-0.4223-0.387-1.0176 0.2639-0.5917 0.6541l0.6573 0.5938c0.4224 0.3873 1.0176-0.2636 0.5917-0.6541l-0.6573-0.5938zm1.9723 1.7812c-0.4224-0.3869-1.0177 0.264-0.5918 0.6541l0.6573 0.5938c0.4224 0.3873 1.0176-0.2636 0.5917-0.6541l-0.6572-0.5938zm1.9718 1.7812c-0.4224-0.3869-1.0176 0.264-0.5917 0.6541l0.6573 0.5939c0.4223 0.3872 1.0176-0.2637 0.5917-0.6541l-0.6573-0.5939zm1.9719 1.7812c-0.4224-0.3869-1.0177 0.264-0.5918 0.6541l0.6573 0.5939c0.4224 0.3873 1.0176-0.2636 0.5917-0.6541l-0.6572-0.5939zm1.9718 1.7813c-0.4224-0.387-1.0176 0.2639-0.5917 0.654l0.6573 0.5939c0.4223 0.3873 1.0176-0.2636 0.5917-0.6541l-0.6573-0.5938zm1.9719 1.7812c-0.4224-0.387-1.0177 0.2639-0.5918 0.6541l0.6573 0.5938c0.4224 0.3873 1.0176-0.2636 0.5917-0.6541l-0.6572-0.5938zm1.9718 1.7812c-0.4224-0.3869-1.0176 0.264-0.5917 0.6541l0.6573 0.5938c0.4223 0.3873 1.0176-0.2636 0.5917-0.654l-0.6573-0.5939zm-3.9487-62.234c-0.072-0.5786-0.9492-0.4713-0.8787 0.093l0.056 0.5206c0.072 0.5786 0.9493 0.4716 0.8788-0.094l-0.056-0.5205zm0.2442 2.2822c-0.072-0.5789-0.9493-0.4716-0.8788 0.094l0.094 0.8809c0.072 0.5786 0.9492 0.4716 0.8787-0.094l-0.094-0.8809zm0.2827 2.6426c-0.072-0.5789-0.9492-0.4716-0.8787 0.094l0.094 0.8809c0.072 0.5786 0.9493 0.4716 0.8788-0.094l-0.094-0.8809zm0.2828 2.6426c-0.072-0.5789-0.9493-0.4716-0.8788 0.094l0.094 0.8809c0.072 0.5786 0.9493 0.4716 0.8787-0.094l-0.094-0.8809zm0.2827 2.6426c-0.072-0.5789-0.9492-0.4716-0.8787 0.094l0.094 0.8809c0.072 0.5786 0.9492 0.4716 0.8787-0.094l-0.094-0.8809zm0.2828 2.6426c-0.072-0.5789-0.9493-0.4716-0.8787 0.094l0.094 0.8808c0.072 0.5787 0.9493 0.4717 0.8788-0.093l-0.094-0.8809zm0.2828 2.6426c-0.072-0.5789-0.9493-0.4716-0.8788 0.094l0.094 0.8808c0.072 0.5787 0.9492 0.4717 0.8787-0.093l-0.094-0.8809zm0.2827 2.6426c-0.072-0.5789-0.9492-0.4716-0.8787 0.094l0.094 0.8808c0.072 0.5787 0.9493 0.4717 0.8788-0.093l-0.094-0.8809zm0.2828 2.6426c-0.072-0.5789-0.9493-0.4716-0.8788 0.094l0.094 0.8808c0.072 0.5787 0.9492 0.4717 0.8787-0.093l-0.094-0.8809zm0.2827 2.6426c-0.072-0.5789-0.9492-0.4716-0.8787 0.094l0.094 0.8808c0.072 0.5787 0.9493 0.4717 0.8788-0.093l-0.094-0.8809zm0.2828 2.6426c-0.072-0.5789-0.9493-0.4716-0.8788 0.093l0.094 0.8805c0.072 0.579 0.9492 0.4717 0.8787-0.093l-0.094-0.8805zm0.2827 2.6423c-0.072-0.579-0.9492-0.4716-0.8787 0.093l0.094 0.8805c0.072 0.579 0.9493 0.4716 0.8788-0.094l-0.094-0.8805zm0.2828 2.6422c-0.072-0.579-0.9493-0.4716-0.8787 0.094l0.094 0.8805c0.072 0.579 0.9493 0.4716 0.8787-0.093l-0.094-0.8805zm0.2827 2.6423c-0.072-0.579-0.9492-0.4717-0.8787 0.093l0.094 0.8805c0.072 0.579 0.9492 0.4716 0.8787-0.093l-0.094-0.8805zm0.2828 2.6422c-0.072-0.579-0.9492-0.4716-0.8787 0.093l0.094 0.8805c0.072 0.579 0.9493 0.4716 0.8788-0.093l-0.094-0.8805zm0.2828 2.6423c-0.072-0.579-0.9493-0.4717-0.8788 0.093l0.094 0.8805c0.072 0.5789 0.9492 0.4716 0.8787-0.093l-0.094-0.8805zm0.2827 2.6422c-0.072-0.579-0.9492-0.4716-0.8787 0.093l0.094 0.8805c0.072 0.579 0.9493 0.4716 0.8788-0.094l-0.094-0.8805zm0.2828 2.6422c-0.072-0.5789-0.9493-0.4716-0.8788 0.093l0.094 0.8806c0.072 0.5789 0.9492 0.4716 0.8787-0.093l-0.094-0.8806zm0.2827 2.6423c-0.072-0.579-0.9492-0.4716-0.8787 0.093l0.094 0.8805c0.072 0.579 0.9493 0.4716 0.8788-0.093l-0.094-0.8805zm0.2828 2.6422c-0.072-0.5789-0.9493-0.4716-0.8788 0.094l0.094 0.8805c0.072 0.579 0.9492 0.4716 0.8787-0.093l-0.094-0.8805zm0.2827 2.6423c-0.072-0.579-0.9492-0.4716-0.8787 0.093l0.094 0.8805c0.072 0.579 0.9493 0.4716 0.8788-0.093l-0.094-0.8805zm0.2828 2.6422c-0.072-0.579-0.9493-0.4716-0.8787 0.093l0.094 0.8805c0.072 0.579 0.9493 0.4716 0.8787-0.093l-0.094-0.8805zm0.2828 2.6423c-0.072-0.579-0.9493-0.4717-0.8788 0.093l0.094 0.8805c0.072 0.579 0.9492 0.4716 0.8787-0.093l-0.094-0.8805zm0.2827 2.6422c-0.072-0.579-0.9492-0.4716-0.8787 0.093l0.094 0.8805c0.072 0.579 0.9492 0.4716 0.8787-0.093l-0.094-0.8805zm-4.2031-84.912c0.036-0.5772-0.8075-0.6548-0.8787-0.083l-0.035 0.3618c-0.036 0.5768 0.8071 0.6551 0.8787 0.083l0.035-0.3618zm-0.2012 2.1256c0.036-0.5772-0.8075-0.6548-0.8788-0.083l-0.084 0.8819c-0.036 0.5769 0.8075 0.6552 0.8788 0.083l0.084-0.8819zm-0.2505 2.6458c0.036-0.5772-0.8072-0.6548-0.8788-0.083l-0.083 0.8819c-0.036 0.5769 0.8071 0.6552 0.8787 0.083l0.083-0.8819zm-0.2502 2.6458c0.036-0.5772-0.8075-0.6548-0.8787-0.083l-0.084 0.8819c-0.036 0.5769 0.8076 0.6552 0.8788 0.083l0.084-0.8819zm-0.2505 2.6458c0.036-0.5772-0.8072-0.6548-0.8787-0.083l-0.083 0.8819c-0.036 0.5768 0.8072 0.6552 0.8787 0.083l0.083-0.8819zm-0.2502 2.6458c0.036-0.5772-0.8071-0.6548-0.8787-0.083l-0.083 0.8819c-0.036 0.5768 0.8075 0.6551 0.8788 0.083l0.083-0.8819zm-0.2498 2.6454c0.036-0.5772-0.8075-0.6548-0.8787-0.083l-0.083 0.8819c-0.036 0.5769 0.8072 0.6552 0.8788 0.083l0.083-0.8819zm-0.2501 2.6454c0.036-0.5772-0.8072-0.6548-0.8788-0.083l-0.083 0.882c-0.036 0.5768 0.8075 0.6551 0.8787 0.083l0.083-0.882zm-0.2498 2.6455c0.036-0.5772-0.8075-0.6548-0.8788-0.083l-0.083 0.8819c-0.036 0.5768 0.8071 0.6551 0.8787 0.083l0.083-0.8819zm7.4182-39.542c0.1485-0.5577-0.665-0.7983-0.8479-0.2491l-0.2498 0.8497c-0.1484 0.557 0.6647 0.799 0.8479 0.2491l0.2498-0.8497zm-0.7494 2.5494c0.1485-0.5577-0.665-0.798-0.8479-0.2491l-0.2498 0.85c-0.1488 0.5577 0.6647 0.7983 0.8479 0.2491l0.2498-0.85zm-0.7494 2.5498c0.1485-0.5581-0.6651-0.7984-0.8479-0.2491l-0.2498 0.8496c-0.1488 0.5578 0.6647 0.7983 0.8479 0.2491l0.2498-0.8496zm-0.7494 2.5494c0.1485-0.5578-0.6651-0.798-0.8479-0.2491l-0.2498 0.85c-0.1488 0.5577 0.6647 0.7983 0.8479 0.2491l0.2498-0.85zm-0.7494 2.5497c0.1485-0.558-0.6651-0.7983-0.8479-0.2491l-0.2498 0.8497c-0.1488 0.5577 0.6647 0.7983 0.8479 0.2491l0.2498-0.8497zm-0.7494 2.5494c0.1485-0.5577-0.6651-0.7979-0.8479-0.2491l-0.2498 0.8501c-0.1488 0.5577 0.6647 0.7983 0.8479 0.2491l0.2498-0.8501zm-0.7494 2.5498c0.1484-0.5581-0.6651-0.7983-0.8479-0.2491l-0.2498 0.8497c-0.1489 0.5577 0.6647 0.7983 0.8479 0.2491l0.2498-0.8497zm11.392-36.41c0.1822-0.5464-0.6555-0.8267-0.8373-0.2803l-0.2494 0.7434c-0.1821 0.5467 0.6555 0.8263 0.8373 0.2803l0.2494-0.7434zm-0.8125 2.4232c0.1822-0.5463-0.6551-0.8266-0.8372-0.2802l-0.2814 0.8397c-0.1821 0.5468 0.6552 0.8267 0.8373 0.2803l0.2813-0.8398zm-0.8443 2.5197c0.1821-0.5464-0.6555-0.8263-0.8373-0.2803l-0.2813 0.8401c-0.1822 0.5468 0.6551 0.8263 0.8372 0.2803l0.2814-0.8401zm-0.8444 2.52c0.1821-0.5464-0.6552-0.8267-0.8373-0.2803l-0.2813 0.8398c-0.1821 0.5467 0.6555 0.8266 0.8373 0.2803l0.2813-0.8398zm-0.844 2.5196c0.1821-0.5463-0.6555-0.8263-0.8373-0.2802l-0.2813 0.8401c-0.1822 0.5467 0.6551 0.8263 0.8373 0.2803l0.2813-0.8402zm-0.8444 2.52c0.1821-0.5463-0.6551-0.8266-0.8373-0.2802l-0.2813 0.8397c-0.1821 0.5468 0.6555 0.8267 0.8373 0.2803l0.2813-0.8398zm-0.844 2.5197c0.1821-0.5464-0.6555-0.8267-0.8373-0.2803l-0.2813 0.8398c-0.1821 0.5467 0.6551 0.8263 0.8373 0.2803l0.2813-0.8398zm3.7396-16.977c0.5149-0.2576 0.1184-1.0474-0.3979-0.7891l-0.4833 0.2442c-0.5149 0.2572-0.1187 1.047 0.3979 0.7891l0.4833-0.2442zm-2.0647 1.0432c0.5149-0.2576 0.1184-1.0474-0.3979-0.7891l-0.7909 0.3993c-0.5148 0.2576-0.1183 1.0474 0.398 0.7891l0.7908-0.3993zm-2.3722 1.1983c0.5148-0.2572 0.1183-1.047-0.3979-0.7891l-0.7905 0.3997c-0.5149 0.2573-0.1187 1.0471 0.3979 0.7891l0.7905-0.3997zm-2.3719 1.1987c0.5141-0.2572 0.1187-1.0474-0.3979-0.7891l-0.7909 0.3994c-0.5138 0.2569-0.119 1.0477 0.3979 0.7891l0.7909-0.3994zm-2.3723 1.1984c0.5142-0.2569 0.1191-1.0474-0.3979-0.7891l-0.7905 0.3997c-0.5141 0.2569-0.119 1.0474 0.3979 0.7891l0.7905-0.3997zm-2.3718 1.1987c0.5141-0.2573 0.1187-1.0474-0.398-0.7891l-0.7908 0.3993c-0.5138 0.2569-0.1191 1.0478 0.3979 0.7891l0.7909-0.3993zm-2.3723 1.1983c0.5141-0.2569 0.1191-1.0474-0.3979-0.7891l-0.7905 0.3994c-0.5141 0.2569-0.1191 1.0477 0.3979 0.7891l0.7905-0.3994zm-2.3719 1.1984c0.5142-0.2573 0.1187-1.0474-0.3979-0.7891l-0.7909 0.3993c-0.5137 0.2569-0.119 1.0474 0.398 0.7891l0.7908-0.3993zm-2.3719 1.198c0.5142-0.2569 0.1187-1.0474-0.3979-0.7891l-0.7905 0.3993c-0.5141 0.2569-0.119 1.0478 0.3979 0.7891l0.7905-0.3993zm-2.3719 1.1983c0.5142-0.2572 0.1191-1.0474-0.3979-0.7891l-0.7905 0.3994c-0.5138 0.2568-0.119 1.0474 0.3979 0.789l0.7905-0.3993zm-2.3715 1.198c0.5141-0.2569 0.1187-1.0474-0.3979-0.7891l-0.7905 0.3993c-0.5141 0.2569-0.1191 1.0478 0.3979 0.7891l0.7905-0.3993zm-2.3719 1.1984c0.5142-0.2573 0.1191-1.0474-0.3979-0.7891l-0.7905 0.3993c-0.5138 0.2569-0.1191 1.0474 0.3979 0.7891l0.7905-0.3993zm-4.7349 2.5869c0.456-0.3508-0.083-1.0506-0.5396-0.6991l-0.7013 0.5418c-0.4556 0.3504 0.083 1.0506 0.5397 0.6991l0.7012-0.5418zm-2.1033 1.625c0.456-0.3508-0.083-1.0506-0.5397-0.6991l-0.7008 0.5414c-0.456 0.3504 0.083 1.0506 0.5396 0.6991l0.7009-0.5414zm-2.103 1.6242c0.4561-0.3508-0.083-1.0506-0.5396-0.6991l-0.7012 0.5415c-0.4557 0.3507 0.082 1.0509 0.5396 0.6991l0.7012-0.5415zm-2.1033 1.6246c0.4561-0.3507-0.083-1.0505-0.5396-0.6991l-0.7009 0.5415c-0.4556 0.3504 0.083 1.0506 0.5397 0.6991l0.7008-0.5415zm-3.9401 3.5327c0.2441-0.5233-0.5383-0.8996-0.7959-0.3841l-0.3848 0.7983c-0.2441 0.523 0.5379 0.9 0.7959 0.3841l0.3848-0.7983zm-1.1541 2.3942c0.2442-0.5233-0.5379-0.8996-0.7958-0.3841l-0.3845 0.798c-0.2441 0.5233 0.5379 0.9 0.7959 0.3841l0.3844-0.798zm-1.1537 2.3942c0.2442-0.5233-0.5382-0.8996-0.7958-0.3841l-0.3848 0.798c-0.2441 0.523 0.5379 0.9 0.7958 0.3841l0.3848-0.798zm-1.154 2.3939c0.2441-0.5233-0.5379-0.8996-0.7959-0.3841l-0.3844 0.798c-0.2441 0.5233 0.5379 0.9 0.7958 0.3841l0.3845-0.798zm-1.1537 2.3942c0.2441-0.5233-0.5383-0.8996-0.7959-0.3841l-0.3848 0.798c-0.2441 0.523 0.5379 0.9 0.7959 0.3841l0.3848-0.798zm-1.1537 2.3939c0.2441-0.5234-0.5383-0.8997-0.7959-0.3841l-0.3844 0.7979c-0.2441 0.523 0.5379 0.9 0.7958 0.3841l0.3845-0.7979zm-1.1537 2.3938c0.2441-0.5233-0.5379-0.8996-0.7959-0.3841l-0.3844 0.798c-0.2441 0.523 0.5379 0.9 0.7958 0.3841l0.3845-0.798zm-1.1534 2.3939c0.2441-0.5234-0.5382-0.8997-0.7958-0.3841l-0.3845 0.7979c-0.2441 0.523 0.5379 0.9 0.7959 0.3841l0.3844-0.7979zm-1.1537 2.3938c0.2441-0.5233-0.5379-0.8996-0.7958-0.384l-0.3845 0.7979c-0.2441 0.523 0.5379 0.9 0.7959 0.3841l0.3844-0.798z" class="fil2"/>
</g>
</g>
</svg>
