<?xml version="1.0" encoding="UTF-8" standalone="no"?>
<svg id="svg5393" xmlns:rdf="http://www.w3.org/1999/02/22-rdf-syntax-ns#" xmlns="http://www.w3.org/2000/svg" height="332.46mm" width="158.81mm" version="1.1" xmlns:cc="http://creativecommons.org/ns#" xmlns:dc="http://purl.org/dc/elements/1.1/" viewBox="0 0 562.70214 1177.9999">
<g id="layer1" transform="translate(5472.3 6489.6)">
<g id="g4172" transform="matrix(7.6086 0 0 7.6086 36164 35102)" clip-rule="evenodd" fill="#ffdd02">
<g fill-rule="evenodd">
<polygon id="polygon460" style="image-rendering:optimizeQuality;shape-rendering:geometricPrecision" transform="matrix(3.5433 0 0 3.5433 -6085.5 -5757.4)" points="175.04 82.888 176.24 83.12 177.16 82.121 177.35 83.352 178.33 84.032 177.32 84.479 177.05 85.718 176.34 84.935 175.08 85.295 175.67 84.256" class="fil3"/>
<polygon id="polygon462" style="image-rendering:optimizeQuality;shape-rendering:geometricPrecision" transform="matrix(3.5433 0 0 3.5433 -6085.5 -5757.4)" points="178.35 87.765 178.7 87.861 179.11 87.573 179.03 88.117 179.5 88.388 179.13 88.484 178.85 89.028 178.67 88.556 178.19 88.652 178.41 88.26" class="fil3"/>
<polygon id="polygon464" style="image-rendering:optimizeQuality;shape-rendering:geometricPrecision" transform="matrix(3.5433 0 0 3.5433 -6085.5 -5757.4)" points="179.26 90.563 180.24 90.771 181.25 89.803 181.34 91.162 182.4 91.642 181.35 92.202 181.18 93.576 180.42 92.625 179.19 92.865 179.73 91.722" class="fil3"/>
<polygon id="polygon466" style="image-rendering:optimizeQuality;shape-rendering:geometricPrecision" transform="matrix(3.5433 0 0 3.5433 -6085.5 -5757.4)" points="175.38 91.922 176.09 92.649 177.16 92.497 176.61 93.377 177.12 94.616 176.1 94.4 175.34 95.239 175.2 94.24 174.24 93.632 175.09 93.049" class="fil3"/>
<polygon id="polygon468" style="image-rendering:optimizeQuality;shape-rendering:geometricPrecision" transform="matrix(3.5433 0 0 3.5433 -6085.5 -5757.4)" points="174.23 115.95 173.21 115.78 173.62 116.77 173.06 117.9 174.02 117.66 174.9 118.42 174.99 117.52 175.95 116.93 175.13 116.32 174.98 115.31" class="fil3"/>
<polygon id="polygon470" style="image-rendering:optimizeQuality;shape-rendering:geometricPrecision" transform="matrix(3.5433 0 0 3.5433 -6085.5 -5757.4)" points="178.86 110.48 179.77 110.71 180.63 109.92 180.71 111.05 181.67 111.44 180.84 111.96 180.58 113.12 179.88 112.32 178.86 112.6 179.38 111.59" class="fil3"/>
<polygon id="polygon472" style="image-rendering:optimizeQuality;shape-rendering:geometricPrecision" transform="matrix(3.5433 0 0 3.5433 -6085.5 -5757.4)" points="183.65 109.83 184.18 110.52 185.24 110.37 184.78 111.16 185.26 112.02 184.47 112.01 183.8 112.78 183.6 111.77 182.67 111.36 183.46 110.8" class="fil3"/>
<polygon id="polygon474" style="image-rendering:optimizeQuality;shape-rendering:geometricPrecision" transform="matrix(3.5433 0 0 3.5433 -6085.5 -5757.4)" points="192.09 122.74 192.64 123.45 193.77 123.26 193.34 124.11 193.94 125.2 192.88 124.96 192.18 125.82 192.01 124.79 190.93 124.23 191.85 123.77" class="fil3"/>
<polygon id="polygon476" style="image-rendering:optimizeQuality;shape-rendering:geometricPrecision" transform="matrix(3.5433 0 0 3.5433 -6085.5 -5757.4)" points="190.82 117.69 191.33 118.13 191.93 118.05 191.63 118.69 191.96 119.35 191.26 119.23 190.82 119.76 190.75 119.05 190.09 118.68 190.68 118.37" class="fil3"/>
<polygon id="polygon478" style="image-rendering:optimizeQuality;shape-rendering:geometricPrecision" transform="matrix(3.5433 0 0 3.5433 -6085.5 -5757.4)" points="190.58 113.75 191.15 114.38 192.08 114.25 191.7 115.17 192.24 116.02 191.35 115.76 190.61 116.65 190.63 115.67 189.54 115.24 190.41 114.76" class="fil3"/>
</g>
<path id="path480" style="image-rendering:optimizeQuality;shape-rendering:geometricPrecision" d="m-5458.1-5457.4c-0.2906-0.5088-1.0599-0.074-0.7785 0.4188l0.422 0.7785c0.2909 0.5088 1.0598 0.074 0.7785-0.4188l-0.422-0.7785zm54.032 137.6c0.1857 0.5577 1.0265 0.2838 0.848-0.2526l-0.094-0.3118c-0.1857-0.5577-1.0268-0.2842-0.8479 0.2526l0.094 0.3118zm-0.6055-2.0083c0.186 0.5577 1.0268 0.2838 0.8479-0.2527l-0.2555-0.8482c-0.1856-0.5578-1.0268-0.2842-0.8479 0.2526l0.2555 0.8483zm-0.7664-2.5448c0.1856 0.558 1.0265 0.2841 0.8479-0.2527l-0.2555-0.8479c-0.186-0.5577-1.0268-0.2842-0.8479 0.2527l0.2555 0.8479zm-0.7664-2.5445c0.1856 0.5581 1.0265 0.2842 0.8479-0.2526l-0.2555-0.8479c-0.186-0.5577-1.0268-0.2842-0.8479 0.2526l0.2555 0.8479zm-0.7665-2.5444c0.1857 0.558 1.0265 0.2841 0.848-0.2527l-0.2555-0.8479c-0.186-0.5577-1.0269-0.2842-0.8479 0.2527l0.2554 0.8479zm-0.7664-2.5445c0.1857 0.5581 1.0265 0.2842 0.8479-0.2526l-0.2554-0.8479c-0.1861-0.5577-1.0269-0.2842-0.8479 0.2526l0.2554 0.8479zm-0.7664-2.5444c0.1857 0.558 1.0265 0.2841 0.8479-0.2527l-0.2554-0.8479c-0.1861-0.5577-1.0269-0.2842-0.848 0.2527l0.2555 0.8479zm-0.5007-4.2959c0 0.186 0.1212 0.36 0.2984 0.4188 0.2842 0.1013 0.5875-0.1198 0.5875-0.4188v-0.8859c0-0.1938-0.1329-0.3756-0.3218-0.4259-0.2813-0.075-0.5641 0.1308-0.5641 0.4259v0.8859zm0-2.6575c0 0.186 0.1212 0.36 0.2984 0.4188 0.2842 0.1013 0.5875-0.1198 0.5875-0.4188v-0.8858c0-0.1939-0.1329-0.3756-0.3218-0.4259-0.2813-0.075-0.5641 0.1307-0.5641 0.4259v0.8858zm0-2.6575c0 0.186 0.1212 0.36 0.2984 0.4188 0.2842 0.1014 0.5875-0.1197 0.5875-0.4188v-0.8858c0-0.1938-0.1329-0.3756-0.3218-0.4259-0.2813-0.075-0.5641 0.1307-0.5641 0.4259v0.8858zm0-2.6575c0 0.186 0.1212 0.36 0.2984 0.4188 0.2842 0.1014 0.5875-0.1197 0.5875-0.4188v-0.8858c0-0.1938-0.1329-0.3756-0.3218-0.4259-0.2813-0.075-0.5641 0.1307-0.5641 0.4259v0.8858zm-0.5095-2.3726c0.4968 0.2838 0.9323-0.4843 0.4291-0.7717l-0.765-0.4252c-0.4964-0.2835-0.9326 0.484-0.4291 0.7717l0.765 0.4252zm-2.3138-1.2855c0.4965 0.2838 0.9323-0.484 0.4291-0.7717l-0.7745-0.4302c-0.4965-0.2834-0.9326 0.484-0.4291 0.7718l0.7745 0.4301zm-2.3233-1.2905c0.4968 0.2839 0.9322-0.484 0.4291-0.7717l-0.7742-0.4301c-0.4964-0.2835-0.9326 0.484-0.4291 0.7717l0.7742 0.4301zm-2.323-1.2904c0.4961 0.2834 0.9329-0.4837 0.4291-0.7718l-0.7746-0.4301c-0.496-0.2835-0.9329 0.484-0.4291 0.7717l0.7746 0.4302zm-2.3234-1.2905c0.4965 0.2835 0.9334-0.4837 0.4291-0.7717l-0.7742-0.4302c-0.496-0.2835-0.9333 0.484-0.4291 0.7717l0.7742 0.4302zm-2.3229-1.2905c0.496 0.2835 0.9329-0.4836 0.4291-0.7717l-0.7746-0.4302c-0.4961-0.2834-0.933 0.4841-0.4291 0.7718l0.7746 0.4301zm-2.3234-1.2904c0.4964 0.2834 0.9333-0.4837 0.4291-0.7718l-0.7742-0.4301c-0.4961-0.2835-0.9333 0.484-0.4291 0.7717l0.7742 0.4302zm-2.323-1.2902c0.4961 0.2835 0.933-0.484 0.4291-0.7717l-0.7746-0.4302c-0.496-0.2834-0.9329 0.4841-0.429 0.7718l0.7745 0.4301zm-2.3233-1.2901c0.4964 0.2835 0.9333-0.484 0.4291-0.7717l-0.7742-0.4302c-0.4961-0.2834-0.9334 0.484-0.4291 0.7718l0.7742 0.4301zm-2.323-1.2901c0.496 0.2835 0.9329-0.484 0.4291-0.7717l-0.7746-0.4302c-0.4961-0.2835-0.9329 0.484-0.4291 0.7717l0.7746 0.4302zm-5.0581-1.8113c0.5737-0.036 0.5191-0.9181-0.059-0.8823l-0.8837 0.059c-0.5733 0.036-0.5191 0.918 0.059 0.8823l0.8837-0.059zm-2.6514 0.1771c0.5736-0.036 0.5187-0.9184-0.059-0.8823l-0.884 0.059c-0.5733 0.036-0.5188 0.9181 0.059 0.8823l0.8841-0.059zm-2.6519 0.1765c0.5737-0.036 0.5191-0.9181-0.059-0.8823l-0.8837 0.059c-0.5733 0.036-0.5191 0.9184 0.059 0.8823l0.8837-0.059zm-2.6514 0.1768c0.5736-0.036 0.5187-0.9184-0.059-0.8823l-0.8837 0.059c-0.5733 0.036-0.5191 0.9181 0.059 0.8823l0.8837-0.059zm-4.904 1.407c0.4199-0.3848-0.1792-1.0339-0.609-0.6402l-0.3976 0.3777c-0.4199 0.3848 0.1793 1.0343 0.6091 0.6403l0.3975-0.3778zm-1.6827 1.5974c0.4199-0.3852-0.1796-1.0343-0.6091-0.6403l-0.6427 0.6098c-0.4195 0.3848 0.1793 1.0343 0.6091 0.6403l0.6427-0.6098zm-1.9279 1.8294c0.4199-0.3852-0.1793-1.0343-0.6091-0.6403l-0.6424 0.6098c-0.4199 0.3848 0.1793 1.0343 0.6091 0.6403l0.6424-0.6098zm-1.9275 1.8294c0.4198-0.3852-0.1797-1.0343-0.6091-0.6403l-0.6428 0.6098c-0.4195 0.3848 0.1793 1.0343 0.6091 0.6403l0.6428-0.6098zm-1.928 1.8294c0.4199-0.3852-0.1792-1.0343-0.609-0.6403l-0.6424 0.6098c-0.4199 0.3848 0.1792 1.0343 0.609 0.6403l0.6424-0.6098zm-1.9275 1.8294c0.4199-0.3852-0.1797-1.0343-0.6091-0.6403l-0.6428 0.6098c-0.4195 0.3848 0.1793 1.0343 0.6091 0.6403l0.6428-0.6098zm-1.9276 1.8294c0.4199-0.3851-0.1796-1.0343-0.6091-0.6403l-0.6424 0.6098c-0.4198 0.3848 0.1793 1.0343 0.6091 0.6403l0.6424-0.6098zm-1.9275 1.8294c0.4199-0.3851-0.1793-1.0343-0.6091-0.6403l-0.6424 0.6098c-0.4196 0.3849 0.1793 1.0343 0.6091 0.6403l0.6424-0.6098zm-1.9272 1.8294c0.4198-0.3851-0.1797-1.0343-0.6091-0.6402l-0.6424 0.6094c-0.4199 0.3848 0.1793 1.0343 0.6091 0.6403l0.6424-0.6095zm-1.9276 1.8291c0.4199-0.3852-0.1793-1.0343-0.6091-0.6403l-0.6424 0.6095c-0.4195 0.3848 0.1793 1.0342 0.6091 0.6402l0.6424-0.6094zm2.0941-78.469c0.036-0.5733-0.8465-0.6257-0.8823-0.048l-0.025 0.478c-0.036 0.5733 0.8462 0.6261 0.8823 0.048l0.028-0.478zm-0.1247 2.2472c0.036-0.573-0.8465-0.6258-0.8823-0.049l-0.049 0.8848c-0.036 0.573 0.8465 0.6258 0.8823 0.048l0.049-0.8847zm-0.1474 2.6539c0.036-0.5733-0.8462-0.6257-0.8823-0.048l-0.049 0.8844c-0.036 0.5733 0.8461 0.6261 0.8823 0.048l0.049-0.8844zm-0.1471 2.6536c0.036-0.5729-0.8465-0.6257-0.8823-0.049l-0.049 0.8847c-0.036 0.573 0.8465 0.6258 0.8823 0.049l0.049-0.8848zm-0.1474 2.6539c0.036-0.5733-0.8461-0.6257-0.8823-0.048l-0.049 0.8844c-0.036 0.5733 0.8462 0.6261 0.8823 0.049l0.049-0.8845zm-0.147 2.6536c0.036-0.5733-0.8465-0.6257-0.8823-0.048l-0.049 0.8844c-0.036 0.5729 0.8465 0.6257 0.8823 0.048l0.049-0.8844zm-0.1474 2.6533c0.036-0.573-0.8462-0.6258-0.8823-0.049l-0.049 0.8844c-0.036 0.5733 0.8461 0.6261 0.8823 0.049l0.049-0.8845zm-0.1471 2.6535c0.036-0.5733-0.8465-0.6257-0.8823-0.048l-0.049 0.8844c-0.036 0.573 0.8465 0.6258 0.8823 0.048l0.049-0.8844zm-0.1474 2.6533c0.036-0.573-0.8461-0.6258-0.8823-0.049l-0.049 0.8844c-0.036 0.5733 0.8462 0.6261 0.8823 0.049l0.049-0.8844zm-0.147 2.6535c0.036-0.5733-0.8465-0.6257-0.8823-0.048l-0.049 0.8844c-0.036 0.573 0.8465 0.6258 0.8823 0.049l0.049-0.8845zm-0.1474 2.6533c0.036-0.573-0.8462-0.6258-0.8823-0.049l-0.049 0.8844c-0.036 0.5733 0.8461 0.6261 0.8823 0.049l0.049-0.8844zm-0.1471 2.6536c0.036-0.5734-0.8465-0.6258-0.8823-0.049l-0.049 0.8844c-0.036 0.573 0.8465 0.6258 0.8823 0.049l0.049-0.8844zm-0.1474 2.6532c0.036-0.573-0.8461-0.6258-0.8823-0.049l-0.049 0.8845c-0.036 0.5733 0.8462 0.6261 0.8823 0.048l0.049-0.8844zm-0.147 2.6536c0.036-0.5733-0.8465-0.6258-0.8823-0.049l-0.049 0.8844c-0.036 0.573 0.8465 0.6258 0.8823 0.049l0.049-0.8844zm-0.1474 2.6532c0.036-0.573-0.8462-0.6258-0.8823-0.048l-0.049 0.8847c-0.036 0.573 0.8461 0.6258 0.8823 0.049l0.049-0.8848zm-0.1471 2.6536c0.036-0.573-0.8465-0.6258-0.8822-0.049l-0.049 0.8844c-0.036 0.5734 0.8465 0.6262 0.8823 0.049l0.049-0.8844zm-0.1474 2.6536c0.036-0.5733-0.8461-0.6258-0.8823-0.049l-0.049 0.8844c-0.036 0.573 0.8461 0.6258 0.8822 0.049l0.049-0.8844zm-0.147 2.6532c0.036-0.573-0.8465-0.6258-0.8823-0.049l-0.049 0.8845c-0.036 0.5733 0.8465 0.6261 0.8823 0.049l0.049-0.8844zm-0.1474 2.6536c0.036-0.5733-0.8462-0.6258-0.8823-0.049l-0.049 0.8844c-0.036 0.573 0.8461 0.6258 0.8823 0.049l0.049-0.8844zm-0.1471 2.6532c0.036-0.573-0.8465-0.6257-0.8822-0.048l-0.049 0.8844c-0.036 0.5733 0.8465 0.6261 0.8823 0.048l0.049-0.8844zm-0.1474 2.6532c0.036-0.5729-0.8461-0.6257-0.8822-0.048l-0.049 0.8844c-0.036 0.5733 0.8461 0.6261 0.8822 0.049l0.049-0.8844zm-0.147 2.6533c0.036-0.573-0.8465-0.6258-0.8823-0.049l-0.049 0.8844c-0.036 0.5733 0.8464 0.6261 0.8822 0.049l0.049-0.8844zm-0.1474 2.6532c0.036-0.573-0.8462-0.6258-0.8823-0.048l-0.049 0.8844c-0.036 0.5733 0.8461 0.6261 0.8823 0.049l0.049-0.8844zm-0.1471 2.6532c0.036-0.5729-0.8465-0.6257-0.8822-0.049l-0.049 0.8844c-0.036 0.5733 0.8465 0.6261 0.8823 0.048l0.049-0.8844zm-0.1474 2.6532c0.036-0.5729-0.8461-0.6257-0.8822-0.048l-0.049 0.8844c-0.036 0.5734 0.8461 0.6261 0.8822 0.048l0.049-0.8844zm-0.147 2.6533c0.036-0.573-0.8465-0.6258-0.8823-0.048l-0.049 0.8844c-0.036 0.5733 0.8465 0.6261 0.8822 0.049l0.049-0.8844zm-0.1474 2.6532c0.036-0.573-0.8462-0.6258-0.8823-0.048l-0.049 0.8844c-0.036 0.5733 0.8461 0.6261 0.8823 0.048l0.049-0.8844zm-0.1471 2.6532c0.036-0.5729-0.8465-0.6257-0.8822-0.048l-0.049 0.8844c-0.036 0.5733 0.8461 0.6261 0.8822 0.048l0.049-0.8844zm-0.147 2.6533c0.036-0.573-0.8461-0.6258-0.8823-0.048l-0.049 0.8844c-0.036 0.5733 0.8465 0.6261 0.8823 0.049l0.049-0.8844zm-0.1467 2.6532c0.036-0.573-0.8465-0.6258-0.8823-0.049l-0.049 0.8844c-0.036 0.5733 0.8462 0.6261 0.8823 0.048l0.049-0.8844zm22.331-85.48c0.035-0.5655-0.8461-0.6148-0.8822-0.031l-0.032 0.8624c-0.035 0.5652 0.8458 0.6152 0.8822 0.031l0.032-0.8624zm-0.098 2.633c0.035-0.5655-0.8457-0.6151-0.8822-0.031l-0.032 0.8851c-0.035 0.5656 0.8458 0.6152 0.8823 0.031l0.032-0.8851zm-0.098 2.6557c0.035-0.5655-0.8462-0.6148-0.8823-0.031l-0.032 0.8855c-0.035 0.5652 0.8458 0.6151 0.8823 0.031l0.032-0.8855zm-0.099 2.6561c0.035-0.5655-0.8458-0.6151-0.8823-0.031l-0.032 0.8851c-0.035 0.5655 0.8458 0.6151 0.8823 0.031l0.032-0.8851zm-0.098 2.6557c0.035-0.5655-0.8461-0.6148-0.8822-0.031l-0.032 0.8855c-0.035 0.5651 0.8458 0.6151 0.8823 0.031l0.032-0.8855zm-0.099 2.656c0.035-0.5655-0.8457-0.6151-0.8822-0.031l-0.032 0.8851c-0.035 0.5655 0.8458 0.6151 0.8823 0.031l0.032-0.8852zm-0.098 2.6558c0.035-0.5656-0.8462-0.6148-0.8823-0.031l-0.032 0.8854c-0.035 0.5652 0.8458 0.6152 0.8823 0.031l0.032-0.8854zm-0.099 2.656c0.035-0.5655-0.8458-0.6151-0.8823-0.031l-0.032 0.8852c-0.035 0.5655 0.8458 0.6151 0.8823 0.031l0.032-0.8851zm-0.098 2.6557c0.035-0.5655-0.8461-0.6147-0.8822-0.031l-0.032 0.8855c-0.035 0.5652 0.8458 0.6151 0.8822 0.031l0.032-0.8855zm-0.098 2.6561c0.035-0.5655-0.8457-0.6151-0.8822-0.031l-0.032 0.8851c-0.035 0.5655 0.8458 0.6151 0.8823 0.031l0.032-0.8851zm-0.098 2.6557c0.035-0.5655-0.8462-0.6151-0.8823-0.031l-0.032 0.8851c-0.035 0.5652 0.8458 0.6152 0.8823 0.031l0.032-0.8851zm-0.099 2.6554c0.035-0.5656-0.8458-0.6148-0.8823-0.032l-0.032 0.8851c-0.035 0.5655 0.8458 0.6151 0.8823 0.032l0.032-0.8851zm-0.098 2.6557c0.035-0.5656-0.8461-0.6152-0.8822-0.032l-0.032 0.8851c-0.035 0.5651 0.8458 0.6151 0.8822 0.032l0.032-0.8851zm-0.099 2.6553c0.035-0.5655-0.8457-0.6147-0.8822-0.032l-0.032 0.8851c-0.035 0.5656 0.8458 0.6152 0.8822 0.032l0.032-0.8851zm-0.098 2.6557c0.035-0.5655-0.8462-0.6151-0.8823-0.032l-0.032 0.8852c-0.035 0.5651 0.8458 0.6151 0.8823 0.032l0.032-0.8851zm-0.099 2.6554c0.035-0.5655-0.8458-0.6148-0.8823-0.032l-0.032 0.8851c-0.035 0.5655 0.8458 0.6151 0.8823 0.032l0.032-0.8851zm-0.098 2.6557c0.035-0.5655-0.8457-0.6151-0.8822-0.032l-0.032 0.8851c-0.035 0.5652 0.8458 0.6151 0.8822 0.032l0.032-0.8851zm-0.098 2.6553c0.035-0.5655-0.8461-0.6147-0.8822-0.032l-0.032 0.8851c-0.035 0.5655 0.8458 0.6154 0.8822 0.032l0.032-0.8852zm-0.098 2.6558c0.035-0.5656-0.8458-0.6148-0.8823-0.032l-0.032 0.8851c-0.035 0.5655 0.8458 0.6151 0.8823 0.032l0.032-0.8851zm-0.098 2.6557c0.035-0.5656-0.8461-0.6152-0.8823-0.032l-0.032 0.8851c-0.035 0.5651 0.8458 0.6151 0.8823 0.032l0.032-0.8851zm-0.098 2.6553c0.035-0.5655-0.8457-0.6148-0.8822-0.032l-0.032 0.8851c-0.035 0.5656 0.8458 0.6152 0.8823 0.032l0.032-0.8851zm-0.098 2.6557c0.035-0.5655-0.8461-0.6151-0.8822-0.032l-0.032 0.8852c-0.035 0.5651 0.8458 0.6151 0.8823 0.032l0.032-0.8851zm-0.098 2.6554c0.035-0.5655-0.8458-0.6148-0.8823-0.032l-0.032 0.8851c-0.035 0.5655 0.8458 0.6151 0.8823 0.032l0.032-0.8851zm-0.098 2.6557c0.035-0.5655-0.8461-0.6151-0.8823-0.032l-0.032 0.8851c-0.035 0.5652 0.8458 0.6151 0.8823 0.032l0.032-0.8851zm-0.098 2.6553c0.035-0.5655-0.8458-0.6147-0.8823-0.032l-0.032 0.8852c-0.035 0.5655 0.8458 0.6151 0.8823 0.032l0.032-0.8852zm-0.098 2.6557c0.035-0.5655-0.8462-0.6151-0.8823-0.032l-0.032 0.8852c-0.035 0.5651 0.8458 0.6151 0.8823 0.032l0.032-0.8852zm-16.025-62.426c-0.036 0.5768 0.8075 0.6551 0.8787 0.083l0.028-0.298c0.036-0.5772-0.8075-0.6548-0.8788-0.083l-0.028 0.298zm0.1949-2.0619c-0.036 0.5769 0.8071 0.6552 0.8787 0.083l0.083-0.8819c0.036-0.5772-0.8071-0.6548-0.8787-0.083l-0.083 0.8819zm0.2491-2.6458c-0.036 0.5769 0.8075 0.6552 0.8787 0.083l0.083-0.8819c0.036-0.5772-0.8076-0.6548-0.8788-0.083l-0.083 0.8819zm0.2494-2.6458c-0.036 0.5769 0.8072 0.6552 0.8787 0.083l0.083-0.8819c0.036-0.5772-0.8072-0.6548-0.8788-0.083l-0.083 0.8819zm0.2491-2.6457c-0.036 0.5768 0.8075 0.6551 0.8787 0.083l0.083-0.882c0.036-0.5772-0.8075-0.6548-0.8787-0.083l-0.083 0.882zm0.2495-2.6458c-0.036 0.5768 0.8071 0.6551 0.8787 0.083l0.083-0.882c0.036-0.5772-0.8072-0.6548-0.8787-0.083l-0.083 0.882zm0.249-2.6458c-0.036 0.5768 0.8076 0.6551 0.8788 0.083l0.083-0.8819c0.036-0.5772-0.8076-0.6548-0.8788-0.083l-0.083 0.882zm0.2495-2.6458c-0.036 0.5768 0.8072 0.6551 0.8787 0.083l0.083-0.8819c0.036-0.5772-0.8071-0.6548-0.8787-0.083l-0.083 0.8819zm0.2491-2.6458c-0.036 0.5769 0.8075 0.6552 0.8787 0.083l0.083-0.8819c0.036-0.5772-0.8075-0.6548-0.8787-0.083l-0.083 0.8819zm0.2494-2.6458c-0.036 0.5769 0.8072 0.6552 0.8788 0.083l0.083-0.8819c0.036-0.5772-0.8072-0.6548-0.8788-0.083l-0.083 0.8819zm0.2491-2.6458c-0.036 0.5769 0.8076 0.6552 0.8788 0.083l0.083-0.8819c0.036-0.5772-0.8075-0.6548-0.8787-0.083l-0.083 0.8819zm0.2495-2.6458c-0.036 0.5772 0.8071 0.6552 0.8787 0.083l0.083-0.8815c0.036-0.5772-0.8071-0.6548-0.8787-0.083l-0.083 0.8815zm13.987 21.232c0.2906 0.5089 1.0598 0.074 0.7785-0.4188l-0.4224-0.7788c-0.2905-0.5088-1.0598-0.073-0.7784 0.4188l0.4223 0.7788zm-1.2667-2.3364c0.2909 0.5088 1.0598 0.074 0.7785-0.4188l-0.422-0.7789c-0.2909-0.5088-1.0598-0.073-0.7785 0.4189l0.422 0.7788zm-1.2664-2.3365c0.2909 0.5088 1.0598 0.074 0.7785-0.4188l-0.422-0.7788c-0.2906-0.5088-1.0598-0.073-0.7785 0.4188l0.422 0.7788zm-1.266-2.3364c0.2906 0.5088 1.0598 0.074 0.7785-0.4188l-0.422-0.7789c-0.2909-0.5088-1.0598-0.073-0.7785 0.4189l0.422 0.7788zm-1.2664-2.3365c0.2909 0.5088 1.0598 0.074 0.7785-0.4188l-0.422-0.7788c-0.2906-0.5088-1.0598-0.073-0.7785 0.4188l0.422 0.7788zm-1.266-2.3364c0.2905 0.5088 1.0598 0.074 0.7785-0.4189l-0.422-0.7788c-0.291-0.5088-1.0598-0.073-0.7785 0.4188l0.422 0.7789zm-1.2664-2.3365c0.2909 0.5088 1.0598 0.074 0.7785-0.4188l-0.422-0.7788c-0.2906-0.5089-1.0598-0.073-0.7785 0.4188l0.422 0.7788zm-1.266-2.3365c0.2905 0.5089 1.0598 0.074 0.7785-0.4188l-0.422-0.7788c-0.291-0.5088-1.0599-0.073-0.7785 0.4188l0.422 0.7788zm-1.2664-2.3364c0.2909 0.5088 1.0598 0.074 0.7785-0.4188l-0.422-0.7785c-0.2906-0.5088-1.0598-0.074-0.7785 0.4188l0.422 0.7785z" class="fil2"/>
</g>
</g>
</svg>
