<?xml version="1.0" encoding="UTF-8" standalone="no"?>
<svg id="svg5393" xmlns:rdf="http://www.w3.org/1999/02/22-rdf-syntax-ns#" xmlns="http://www.w3.org/2000/svg" height="332.46mm" width="295.53mm" version="1.1" xmlns:cc="http://creativecommons.org/ns#" xmlns:dc="http://purl.org/dc/elements/1.1/" viewBox="0 0 1047.1453 1177.9999">
<g id="layer1" transform="translate(4843.3 5162.9)">
<g id="g4219" transform="matrix(10.881 0 0 10.881 47857 39375)" clip-rule="evenodd" fill="#ffdd02">
<g fill-rule="evenodd">
<polygon id="polygon548" style="image-rendering:optimizeQuality;shape-rendering:geometricPrecision" transform="matrix(3.5433 0 0 3.5433 -5445.4 -4661.1)" points="177 162.81 178.1 162.63 178.67 161.53 179.18 162.63 180.38 162.85 179.44 163.62 179.61 164.93 178.59 164.28 177.64 164.93 177.89 163.68" class="fil3"/>
<polygon id="polygon550" style="image-rendering:optimizeQuality;shape-rendering:geometricPrecision" transform="matrix(3.5433 0 0 3.5433 -5445.4 -4661.1)" points="184.08 160.39 184.82 160.75 185.54 160.29 185.37 161.22 186.04 161.75 185.26 161.85 184.97 162.72 184.5 162.04 183.4 161.89 184.22 161.24" class="fil3"/>
<polygon id="polygon552" style="image-rendering:optimizeQuality;shape-rendering:geometricPrecision" transform="matrix(3.5433 0 0 3.5433 -5445.4 -4661.1)" points="183.79 165.12 184.98 164.92 185.58 163.67 186.12 164.85 187.41 165.13 186.5 165.92 186.62 167.55 185.64 166.83 184.36 167.55 184.64 166.19" class="fil3"/>
<polygon id="polygon554" style="image-rendering:optimizeQuality;shape-rendering:geometricPrecision" transform="matrix(3.5433 0 0 3.5433 -5445.4 -4661.1)" points="194.96 161.42 195.81 161.89 196.62 161.41 196.42 162.35 197.08 163.07 196.15 163.23 195.76 164.18 195.35 163.3 194.42 163.16 195.16 162.43" class="fil3"/>
<polygon id="polygon556" style="image-rendering:optimizeQuality;shape-rendering:geometricPrecision" transform="matrix(3.5433 0 0 3.5433 -5445.4 -4661.1)" points="184.62 178.11 185.42 178.67 186.39 178.11 186.12 179.15 187.04 180.02 185.91 180.1 185.57 181.17 185.09 180.22 183.9 180.11 184.78 179.24" class="fil3"/>
<polygon id="polygon558" style="image-rendering:optimizeQuality;shape-rendering:geometricPrecision" transform="matrix(3.5433 0 0 3.5433 -5445.4 -4661.1)" points="180.08 182.86 181 183.41 181.92 182.86 181.73 184.01 182.65 184.81 181.52 184.86 181.04 185.95 180.54 185.07 179.52 184.89 180.19 184.01" class="fil3"/>
<polygon id="polygon560" style="image-rendering:optimizeQuality;shape-rendering:geometricPrecision" transform="matrix(3.5433 0 0 3.5433 -5445.4 -4661.1)" points="173.2 183.57 174.06 184.09 174.97 183.53 174.83 184.53 175.48 185.38 174.48 185.51 174.08 186.64 173.5 185.57 172.43 185.43 173.28 184.72" class="fil3"/>
<polygon id="polygon562" style="image-rendering:optimizeQuality;shape-rendering:geometricPrecision" transform="matrix(3.5433 0 0 3.5433 -5445.4 -4661.1)" points="170.65 187.78 171.52 188.34 172.43 187.68 172.15 188.77 172.97 189.6 171.9 189.77 171.51 190.84 171.08 189.86 169.92 189.75 170.72 188.94" class="fil3"/>
</g>
<path id="path564" style="image-rendering:optimizeQuality;shape-rendering:geometricPrecision" d="m-4808.5-4084.1c-0.5545 0.1849-0.281 1.0233 0.2562 0.8443l0.8475-0.2572c0.5549-0.185 0.281-1.0233-0.2562-0.8444l-0.8475 0.2573zm-21.283 80.345c0.2849-0.4989-0.484-0.9358-0.7717-0.4326l-0.2087 0.3702c-0.2849 0.4986 0.484 0.9362 0.7717 0.4327l0.2087-0.3703zm-1.0786 1.9137c0.2849-0.4985-0.4843-0.9357-0.7717-0.4326l-0.4351 0.7717c-0.2849 0.4986 0.4843 0.9362 0.7717 0.4327l0.4351-0.7718zm-1.305 2.3152c0.2849-0.4985-0.484-0.9357-0.7717-0.4326l-0.4348 0.7717c-0.2849 0.4986 0.484 0.9362 0.7718 0.4327l0.4347-0.7718zm-1.3046 2.3152c0.2849-0.4985-0.4844-0.9357-0.7718-0.4326l-0.4351 0.7717c-0.2849 0.4986 0.4844 0.9358 0.7718 0.4327l0.4351-0.7718zm-1.305 2.3149c0.2849-0.4986-0.484-0.9358-0.7718-0.4327l-0.4347 0.7718c-0.2849 0.4985 0.484 0.9358 0.7717 0.4326l0.4348-0.7717zm27.954-12.474c0.5751-0.036 0.5205-0.9185-0.055-0.8823l-0.8841 0.059c-0.5747 0.036-0.5208 0.9181 0.055 0.8823l0.8841-0.059zm-2.6518 0.1764c0.5751-0.036 0.5208-0.9184-0.055-0.8823l-0.8837 0.059c-0.5747 0.036-0.5209 0.9184 0.055 0.8823l0.8837-0.059zm-2.6515 0.1761c0.5751-0.036 0.5205-0.9184-0.055-0.8823l-0.884 0.059c-0.5747 0.036-0.5209 0.9184 0.055 0.8823l0.884-0.058zm-2.6518 0.1761c0.5751-0.036 0.5209-0.9184-0.055-0.8823l-0.8837 0.059c-0.5747 0.036-0.5208 0.9184 0.055 0.8823l0.8837-0.059zm-2.6515 0.1761c0.5751-0.036 0.5206-0.9184-0.055-0.8823l-0.8841 0.059c-0.5747 0.036-0.5208 0.9184 0.055 0.8823l0.884-0.059zm-2.6518 0.1758c0.5751-0.036 0.5209-0.9181-0.055-0.8823l-0.8837 0.059c-0.5748 0.036-0.5209 0.9181 0.055 0.8823l0.8837-0.059zm-2.6514 0.1761c0.5751-0.036 0.5205-0.9184-0.055-0.8823l-0.8841 0.059c-0.5747 0.036-0.5208 0.9184 0.055 0.8822l0.8841-0.058zm-2.6518 0.1757c0.575-0.036 0.5208-0.918-0.055-0.8823l-0.8837 0.059c-0.5747 0.036-0.5209 0.918 0.055 0.8823l0.8837-0.059zm36.281-17.306c0.3887-0.4245-0.2637-1.0212-0.6541-0.5953l-0.1804 0.1974c-0.3887 0.4241 0.2636 1.0212 0.6541 0.5953l0.1804-0.1974zm-1.3749 1.5059c0.3891-0.4245-0.2636-1.0212-0.654-0.5953l-0.5971 0.6541c-0.3887 0.4242 0.2633 1.0216 0.6541 0.5953l0.597-0.6541zm-1.7914 1.9627c0.3887-0.4242-0.2637-1.0212-0.6541-0.5953l-0.5974 0.6544c-0.3887 0.4242 0.2636 1.0212 0.6541 0.5953l0.5974-0.6544zm-1.7919 1.9629c0.3891-0.4244-0.2636-1.0211-0.6541-0.5952l-0.597 0.6541c-0.3887 0.4241 0.2632 1.0215 0.6541 0.5952l0.597-0.6541zm-1.7915 1.9627c0.3887-0.4242-0.2636-1.0212-0.6541-0.5953l-0.5974 0.6541c-0.3887 0.4241 0.2636 1.0215 0.6541 0.5953l0.5974-0.6541zm-1.7918 1.9626c0.389-0.4245-0.2637-1.0212-0.6541-0.5953l-0.5971 0.6541c-0.3887 0.4242 0.2633 1.0212 0.6541 0.5953l0.5971-0.6541zm-1.7915 1.9623c0.3887-0.4241-0.2637-1.0212-0.6541-0.5953l-0.5974 0.6541c-0.3887 0.4242 0.2636 1.0216 0.6541 0.5953l0.5974-0.6541zm-1.7919 1.9626c0.3891-0.4244-0.2636-1.0211-0.6541-0.5952l-0.597 0.6541c-0.3887 0.4241 0.2632 1.0211 0.6541 0.5952l0.597-0.6541zm13.757-60.492c0-0.579-0.8823-0.579-0.8823-0.01l-0.01 0.8858c0 0.579 0.8823 0.5794 0.8823 0.01l0.01-0.8858zm-0.025 2.6575c0-0.579-0.8823-0.579-0.8823-0.01l-0.01 0.8858c0 0.579 0.8823 0.5793 0.8823 0.01l0.01-0.8858zm-0.025 2.6575c0-0.579-0.8823-0.579-0.8823-0.01l-0.01 0.8858c0 0.579 0.8823 0.5793 0.8823 0.01l0.01-0.8858zm-0.025 2.6574c0-0.5789-0.8823-0.5789-0.8823-0.01l-0.01 0.8859c0 0.5789 0.8823 0.5793 0.8823 0.01l0.01-0.8859zm-0.025 2.6575c0-0.579-0.8823-0.579-0.8823-0.01l-0.01 0.8858c0 0.579 0.8823 0.5794 0.8823 0.01l0.01-0.8858zm-0.025 2.6575c0-0.579-0.8823-0.579-0.8823-0.01l-0.01 0.8858c0 0.579 0.8823 0.5794 0.8823 0.01l0.01-0.8858zm-0.025 2.6575c0-0.579-0.8823-0.579-0.8823-0.01l-0.01 0.8858c0 0.579 0.8823 0.5793 0.8823 0.01l0.01-0.8858zm-0.025 2.6575c0-0.579-0.8823-0.579-0.8823-0.01l-0.01 0.8858c0 0.579 0.8823 0.5793 0.8823 0.01l0.01-0.8858zm-0.025 2.6574c0-0.5789-0.8823-0.5789-0.8823-0.01l-0.01 0.8859c0 0.5789 0.8823 0.5793 0.8823 0.01l0.01-0.8859zm-0.025 2.6575c0-0.579-0.8823-0.579-0.8823-0.01l-0.01 0.8858c0 0.579 0.8823 0.5794 0.8823 0.01l0.01-0.8858zm-0.025 2.6575c0-0.579-0.8823-0.579-0.8823-0.01l-0.01 0.8858c0 0.579 0.8823 0.5794 0.8823 0.01l0.01-0.8858zm-0.025 2.6575c0-0.579-0.8823-0.579-0.8823-0.01l-0.01 0.8858c0 0.579 0.8823 0.5793 0.8823 0.01l0.01-0.8858zm-0.025 2.6575c0-0.579-0.8823-0.579-0.8823-0.01l-0.01 0.8854c0 0.579 0.8823 0.5794 0.8823 0.01l0.01-0.8854zm-0.025 2.6571c0-0.579-0.8823-0.579-0.8823-0.01l-0.01 0.8855c0 0.5789 0.8823 0.5793 0.8823 0.01l0.01-0.8855zm-0.025 2.6571c0-0.579-0.8823-0.579-0.8823-0.01l-0.01 0.8855c0 0.579 0.8823 0.5793 0.8823 0.01l0.01-0.8855zm-0.025 2.6571c0-0.5789-0.8823-0.5789-0.8823-0.01l-0.01 0.8855c0 0.579 0.8823 0.5793 0.8823 0.01l0.01-0.8855zm-0.025 2.6572c0-0.579-0.8823-0.579-0.8823-0.01l-0.01 0.8854c0 0.579 0.8823 0.5794 0.8823 0.01l0.01-0.8854zm35.071-55.571c0.5503-0.1835 0.3076-0.9964-0.2491-0.8479l-0.1697 0.05c-0.5503 0.1835-0.3079 0.9963 0.2491 0.8479l0.1697-0.05zm-1.8695 0.551c0.5503-0.1832 0.308-0.9964-0.249-0.8479l-0.8497 0.2505c-0.5503 0.1835-0.3079 0.9964 0.2491 0.8479l0.8496-0.2505zm-2.549 0.7515c0.5503-0.1832 0.3075-0.9963-0.2491-0.8479l-0.8497 0.2505c-0.5503 0.1832-0.3079 0.9964 0.2491 0.8479l0.8497-0.2505zm-2.5491 0.7512c0.5503-0.1832 0.3076-0.9964-0.2491-0.8479l-0.8496 0.2505c-0.5503 0.1832-0.308 0.9964 0.249 0.8479l0.8497-0.2505zm-2.549 0.7512c0.5503-0.1832 0.3075-0.9964-0.2491-0.8479l-0.8497 0.2505c-0.5503 0.1832-0.3079 0.9964 0.2491 0.8479l0.8497-0.2505zm-2.5491 0.7512c0.5503-0.1832 0.3076-0.9964-0.2491-0.8479l-0.8497 0.2505c-0.5502 0.1832-0.3079 0.9964 0.2491 0.8479l0.8497-0.2505zm-2.549 0.7512c0.5502-0.1832 0.3075-0.9964-0.2491-0.848l-0.8497 0.2506c-0.5503 0.1831-0.3079 0.9963 0.2491 0.8479l0.8497-0.2505zm-2.5491 0.7511c0.5503-0.1831 0.3076-0.9963-0.2491-0.8479l-0.8497 0.2505c-0.5502 0.1832-0.3079 0.9964 0.2491 0.848l0.8497-0.2506zm-2.549 0.7512c0.5502-0.1832 0.3075-0.9964-0.2491-0.8479l-0.8497 0.2505c-0.5503 0.1832-0.3079 0.9964 0.2491 0.8479l0.8497-0.2505zm-2.5491 0.7512c0.5503-0.1835 0.3076-0.9964-0.2491-0.8479l-0.8497 0.2501c-0.5503 0.1836-0.3079 0.9964 0.2491 0.848l0.8497-0.2502zm-2.5491 0.7508c0.5503-0.1832 0.3076-0.9963-0.249-0.8479l-0.8497 0.2505c-0.5503 0.1832-0.3079 0.9964 0.2491 0.8479l0.8496-0.2505zm-2.549 0.7512c0.5492-0.1832 0.3086-0.9967-0.2491-0.8479l-0.8497 0.2502c-0.5492 0.1831-0.309 0.9967 0.2491 0.8479l0.8497-0.2502zm-2.5491 0.7508c0.5493-0.1828 0.3087-0.9963-0.2491-0.8479l-0.8496 0.2505c-0.5493 0.1829-0.309 0.9964 0.2491 0.8479l0.8496-0.2505zm-7.0455-11.492c-0.1052-0.5616-0.9715-0.3965-0.8649 0.1729l0.1754 0.8685c0.1052 0.5616 0.9716 0.3965 0.8649-0.1729l-0.1754-0.8685zm0.5262 2.6051c-0.1052-0.5616-0.9716-0.3965-0.8649 0.1729l0.1754 0.8681c0.1052 0.5616 0.9716 0.3968 0.8649-0.1729l-0.1754-0.8681zm0.5262 2.6047c-0.1052-0.5617-0.9716-0.3965-0.8649 0.1729l0.1754 0.8684c0.1052 0.5616 0.9715 0.3965 0.8649-0.1729l-0.1754-0.8684zm0.5262 2.605c-0.1053-0.5616-0.9716-0.3965-0.865 0.1729l0.1754 0.8681c0.1053 0.5616 0.9716 0.3965 0.865-0.1729l-0.1754-0.8681zm-4.5957-9.3869c0.5549-0.185 0.281-1.0233-0.2562-0.8444l-0.2349 0.072c-0.5545 0.1846-0.281 1.0233 0.2562 0.8443l0.2349-0.072zm-1.9304 0.586c0.5549-0.1849 0.281-1.0233-0.2562-0.8443l-0.8475 0.2572c-0.5546 0.185-0.281 1.0233 0.2561 0.8444l0.8476-0.2573zm-2.543 0.7718c0.5549-0.185 0.281-1.0233-0.2562-0.8444l-0.8476 0.2572c-0.5545 0.185-0.2809 1.0233 0.2562 0.8444l0.8476-0.2572zm-2.5427 0.7717c0.5549-0.185 0.2806-1.0233-0.2562-0.8444l-0.8475 0.2573c-0.5546 0.1849-0.281 1.0233 0.2561 0.8443l0.8476-0.2572zm-2.543 0.7717c0.5548-0.1849 0.281-1.0233-0.2562-0.8443l-0.8476 0.2572c-0.5545 0.185-0.281 1.0233 0.2562 0.8444l0.8476-0.2573zm-2.5427 0.7718c0.5549-0.185 0.2806-1.0234-0.2562-0.8444l-0.8476 0.2572c-0.5545 0.185-0.2809 1.0233 0.2562 0.8444l0.8476-0.2572z" class="fil2"/>
</g>
</g>
</svg>
