<?xml version="1.0" encoding="UTF-8" standalone="no"?>
<svg id="svg5393" xmlns:rdf="http://www.w3.org/1999/02/22-rdf-syntax-ns#" xmlns="http://www.w3.org/2000/svg" height="332.46mm" width="181.97mm" version="1.1" xmlns:cc="http://creativecommons.org/ns#" xmlns:dc="http://purl.org/dc/elements/1.1/" viewBox="0 0 644.76441 1177.9999">
<g id="layer1" transform="translate(4295.1 4230.2)">
<g id="g4188" transform="matrix(8.9614 0 0 8.9614 34195 24300)" clip-rule="evenodd" fill="#ffdd02">
<g fill-rule="evenodd">
<polygon id="polygon16-5" style="image-rendering:optimizeQuality;shape-rendering:geometricPrecision" transform="matrix(3.5433 0 0 3.5433 -4413.3 -3737.9)" points="52.137 156.43 52.664 157.5 53.653 157.5 52.983 158.3 53.078 159.56 52.137 159.12 51.259 159.56 51.307 158.67 50.557 157.5 51.754 157.42" class="fil3"/>
<polygon id="polygon18-1" style="image-rendering:optimizeQuality;shape-rendering:geometricPrecision" transform="matrix(3.5433 0 0 3.5433 -4413.3 -3737.9)" points="51.076 161.06 51.658 161.99 52.48 162.02 51.906 162.65 51.937 163.78 51.211 163.26 50.286 163.76 50.302 162.87 49.727 162 50.541 161.93" class="fil3"/>
<polygon id="polygon20-0" style="image-rendering:optimizeQuality;shape-rendering:geometricPrecision" transform="matrix(3.5433 0 0 3.5433 -4413.3 -3737.9)" points="40.145 164.58 40.608 165.44 41.725 165.7 41.023 166.5 41.054 167.84 40.145 167.14 39.148 167.6 39.347 166.74 38.525 165.77 39.586 165.57" class="fil3"/>
<polygon id="polygon22-6" style="image-rendering:optimizeQuality;shape-rendering:geometricPrecision" transform="matrix(3.5433 0 0 3.5433 -4413.3 -3737.9)" points="34.257 178.92 35.039 179.55 36.092 179.01 35.98 180.2 36.746 181 35.613 181.08 35.046 182.2 34.656 181.05 33.347 181 34.273 180.05" class="fil3"/>
<polygon id="polygon24-4" style="image-rendering:optimizeQuality;shape-rendering:geometricPrecision" transform="matrix(3.5433 0 0 3.5433 -4413.3 -3737.9)" points="49.875 181.44 50.765 182.24 51.794 181.42 51.546 182.69 52.288 183.35 51.211 183.44 50.717 184.35 50.246 183.5 49.169 183.24 49.935 182.62" class="fil3"/>
<polygon id="polygon26-2" style="image-rendering:optimizeQuality;shape-rendering:geometricPrecision" transform="matrix(3.5433 0 0 3.5433 -4413.3 -3737.9)" points="42.331 189.99 43.352 190.65 44.35 190.03 44.294 191.37 45.203 192.38 43.935 192.35 43.36 193.53 42.826 192.33 41.709 192.22 42.435 191.47" class="fil3"/>
</g>
<path id="path28-2" style="image-rendering:optimizeQuality;shape-rendering:geometricPrecision" d="m-4258.1-3060.3c-0.3819 0.417 0.2718 1.0102 0.668 0.5779l0.5811-0.6686c0.3819-0.4171-0.2722-1.0099-0.668-0.578l-0.5811 0.6687zm26.449-103.84c-0.1404 0.5617 0.7157 0.7774 0.8546 0.2215l0.2239-0.8571c0.1404-0.5613-0.7157-0.7774-0.8546-0.2215l-0.2239 0.8571zm0.6718-2.5713c-0.1404 0.5616 0.7157 0.7774 0.8546 0.2214l0.2239-0.8571c0.1404-0.5613-0.7157-0.7774-0.8546-0.2215l-0.2239 0.8572zm0.6714-2.5714c-0.1403 0.5616 0.7158 0.7774 0.8547 0.2214l0.2239-0.8571c0.1403-0.5612-0.7157-0.7774-0.8546-0.2214l-0.224 0.8571zm0.6715-2.571c-0.1403 0.5616 0.7157 0.7774 0.8546 0.2214l0.224-0.8571c0.1403-0.5613-0.7158-0.7774-0.8547-0.2215l-0.2239 0.8572zm0.6714-2.5711c-0.1403 0.5617 0.7158 0.7774 0.8547 0.2215l0.2239-0.8571c0.1403-0.5613-0.7157-0.7774-0.8546-0.2215l-0.224 0.8571zm-4.2002 83.657c0 0.5793 0.8823 0.5818 0.8823 0.011l0.013-0.8759c0-0.579-0.8823-0.5818-0.8823-0.011l-0.013 0.8759zm0.039-2.6476c0 0.5797 0.8823 0.5822 0.8823 0.011l0.013-0.8858c0-0.579-0.8823-0.5818-0.8823-0.011l-0.013 0.8858zm0.039-2.6575c0 0.5797 0.8823 0.5822 0.8823 0.011l0.013-0.8859c0-0.579-0.8823-0.5818-0.8823-0.011l-0.013 0.8858zm0.039-2.6575c0 0.5797 0.8823 0.5822 0.8823 0.011l0.013-0.8859c0-0.5789-0.8823-0.5818-0.8823-0.011l-0.013 0.8858zm0.039-2.6574c0 0.5796 0.8823 0.5821 0.8823 0.011l0.013-0.8858c0-0.579-0.8823-0.5818-0.8823-0.011l-0.013 0.8859zm0.039-2.6575c0 0.5797 0.8823 0.5821 0.8823 0.011l0.013-0.8858c0-0.579-0.8823-0.5818-0.8823-0.011l-0.013 0.8858zm0.039-2.6575c0 0.5797 0.8823 0.5822 0.8823 0.011l0.013-0.8858c0-0.579-0.8823-0.5818-0.8823-0.011l-0.013 0.8858zm0.039-2.6571c0 0.5793 0.8823 0.5818 0.8823 0.011l0.013-0.8858c0-0.579-0.8823-0.5818-0.8823-0.011l-0.013 0.8859zm0.039-2.6572c0 0.5794 0.8823 0.5819 0.8823 0.011l0.013-0.8858c0-0.579-0.8823-0.5819-0.8823-0.011l-0.013 0.8858zm0.039-2.6571c0 0.5794 0.8823 0.5818 0.8823 0.011l0.013-0.8859c0-0.5789-0.8823-0.5818-0.8823-0.011l-0.013 0.8858zm0.039-2.6571c0 0.5793 0.8823 0.5818 0.8823 0.011l0.013-0.8858c0-0.579-0.8823-0.5818-0.8823-0.011l-0.013 0.8858zm0.039-2.6571c0 0.5793 0.8823 0.5818 0.8823 0.011l0.013-0.8858c0-0.579-0.8823-0.5818-0.8823-0.011l-0.013 0.8859zm0.039-2.6572c0 0.5794 0.8823 0.5819 0.8823 0.011l0.013-0.8859c0-0.5789-0.8823-0.5818-0.8823-0.011l-0.013 0.8858zm0.039-2.6571c0 0.5794 0.8823 0.5818 0.8823 0.011l0.013-0.8858c0-0.579-0.8823-0.5818-0.8823-0.011l-0.013 0.8858zm0.039-2.6571c0 0.5793 0.8823 0.5818 0.8823 0.011l0.013-0.8858c0-0.579-0.8823-0.5818-0.8823-0.011l-0.013 0.8858zm0.039-2.6571c0 0.5793 0.8823 0.5818 0.8823 0.011l0.013-0.8858c0-0.579-0.8823-0.5818-0.8823-0.011l-0.013 0.8859zm0.039-2.6572c0 0.5794 0.8823 0.5819 0.8823 0.011l0.013-0.8859c0-0.5789-0.8822-0.5818-0.8822-0.011l-0.013 0.8858zm0.038-2.6571c0 0.5793 0.8822 0.5818 0.8822 0.011l0.013-0.8858c0-0.579-0.8823-0.5818-0.8823-0.011l-0.013 0.8858zm0.039-2.6571c0 0.5793 0.8823 0.5818 0.8823 0.011l0.013-0.8858c0-0.579-0.8823-0.5818-0.8823-0.011l-0.013 0.8858zm0.038-2.6571c0 0.5793 0.8822 0.5818 0.8822 0.011l0.013-0.8858c0-0.579-0.8823-0.5818-0.8823-0.011l-0.013 0.8859zm0.039-2.6572c0 0.5794 0.8823 0.5818 0.8823 0.011l0.013-0.8859c0-0.5789-0.8823-0.5818-0.8823-0.011l-0.013 0.8858zm0.038-2.6571c0 0.5793 0.8823 0.5818 0.8823 0.011l0.013-0.8858c0-0.579-0.8823-0.5818-0.8823-0.011l-0.013 0.8858zm0.039-2.6571c0 0.5793 0.8822 0.5818 0.8822 0.011l0.013-0.8858c0-0.579-0.8823-0.5818-0.8823-0.011l-0.013 0.8858zm0.038-2.6571c0 0.5793 0.8823 0.5818 0.8823 0.011l0.013-0.8858c0-0.579-0.8823-0.5818-0.8823-0.011l-0.013 0.8859zm0.039-2.6572c0 0.5794 0.8822 0.5818 0.8822 0.011l0.013-0.8859c0-0.5789-0.8823-0.5818-0.8823-0.011l-0.013 0.8858zm0.038-2.6571c0 0.5797 0.8823 0.5822 0.8823 0.011l0.013-0.8854c0-0.5794-0.8823-0.5822-0.8823-0.011l-0.013 0.8855zm0.039-2.6568c0 0.5794 0.8823 0.5818 0.8823 0.011l0.013-0.8859c0-0.5789-0.8823-0.5818-0.8823-0.011l-0.013 0.8858zm-39.532 13.945c0.2108-0.5269-0.6102-0.8497-0.827-0.3079v0.01c-0.2105 0.5265 0.6105 0.8496 0.827 0.3079v-0.01zm-0.6201 1.6664c0.2108-0.5269-0.6102-0.8497-0.827-0.3079l-0.309 0.8302c-0.2105 0.5269 0.6105 0.85 0.827 0.3079l0.309-0.8302zm-0.9269 2.4909c0.2108-0.5269-0.6102-0.8496-0.8271-0.3079l-0.3089 0.8306c-0.2105 0.5265 0.6105 0.8497 0.827 0.3079l0.309-0.8306zm-0.927 2.4913c0.2109-0.5269-0.6101-0.8496-0.827-0.3079l-0.3086 0.8302c-0.2108 0.5266 0.6102 0.8497 0.827 0.3079l0.3086-0.8302zm-0.9265 2.4906c0.2108-0.5269-0.6102-0.8497-0.8271-0.3079l-0.3086 0.8302c-0.2108 0.5269 0.6102 0.8501 0.827 0.3079l0.3087-0.8302zm-0.9266 2.491c0.2108-0.5269-0.6102-0.8497-0.827-0.3079l-0.3087 0.8302c-0.2108 0.5265 0.6102 0.8496 0.8271 0.3079l0.3086-0.8302zm-0.9266 2.4906c0.2108-0.5269-0.6102-0.8497-0.827-0.308l-0.3086 0.8302c-0.2109 0.5269 0.6101 0.8501 0.827 0.308l0.3086-0.8302zm-0.9266 2.4909c0.2109-0.5269-0.6101-0.8497-0.827-0.3079l-0.3086 0.8302c-0.2108 0.5265 0.6102 0.8497 0.827 0.3079l0.3086-0.8302zm-0.9265 2.4906c0.2108-0.5269-0.6102-0.8497-0.8271-0.3079l-0.3086 0.8302c-0.2108 0.5269 0.6102 0.85 0.827 0.3079l0.3087-0.8302zm-0.9266 2.4909c0.2108-0.5268-0.6102-0.8496-0.827-0.3079l-0.3086 0.8302c-0.2109 0.5266 0.6101 0.8497 0.827 0.3079l0.3086-0.8302zm-0.9262 2.4906c0.2104-0.5269-0.6106-0.8497-0.827-0.3079l-0.309 0.8302c-0.2105 0.5266 0.6105 0.8497 0.827 0.3079l0.309-0.8302zm-0.9266 2.4906c0.2108-0.5269-0.6102-0.8497-0.827-0.3079l-0.3086 0.8302c-0.2109 0.5265 0.6101 0.8497 0.827 0.3079l0.3086-0.8302zm-0.9262 2.4906c0.2104-0.5269-0.6105-0.8497-0.827-0.3079l-0.309 0.8302c-0.2105 0.5265 0.6105 0.8497 0.827 0.3079l0.309-0.8302zm-0.9266 2.4906c0.2108-0.5269-0.6102-0.8497-0.827-0.3079l-0.3086 0.8302c-0.2109 0.5265 0.6101 0.8497 0.827 0.3079l0.3086-0.8302zm-0.9262 2.4906c0.2104-0.5269-0.6105-0.8497-0.827-0.3079l-0.309 0.8302c-0.2105 0.5265 0.6105 0.8497 0.827 0.3079l0.309-0.8302zm-0.9266 2.4906c0.2108-0.5269-0.6102-0.8497-0.827-0.3079l-0.3086 0.8302c-0.2109 0.5265 0.6101 0.8497 0.827 0.3079l0.3086-0.8302zm-0.9262 2.4906c0.2104-0.5269-0.6105-0.8497-0.827-0.3079l-0.309 0.8302c-0.2105 0.5265 0.6105 0.8496 0.827 0.3079l0.309-0.8302zm-0.9266 2.4906c0.2108-0.5269-0.6102-0.8497-0.827-0.3079l-0.3086 0.8302c-0.2109 0.5265 0.6101 0.8496 0.827 0.3079l0.3086-0.8302zm-0.9262 2.4906c0.2105-0.5269-0.6105-0.8497-0.827-0.308l-0.309 0.8302c-0.2105 0.5266 0.6105 0.8497 0.827 0.308l0.309-0.8302zm52.845 12.416c0.579 0.072 0.6902-0.8047 0.1247-0.8755l-0.097-0.014c-0.5789-0.072-0.6905 0.805-0.1247 0.8755l0.097 0.014zm-1.8507-0.2682c0.579 0.072 0.6903-0.8047 0.1248-0.8756l-0.877-0.1268c-0.5786-0.072-0.6906 0.8047-0.1247 0.8755l0.8769 0.1269zm-2.6305-0.3809c0.579 0.072 0.6902-0.8051 0.1247-0.8756l-0.8766-0.1272c-0.579-0.072-0.6906 0.8051-0.1247 0.8756l0.8766 0.1272zm-2.6302-0.3813c0.579 0.072 0.6902-0.8047 0.1247-0.8755l-0.8769-0.1269c-0.5787-0.072-0.6906 0.8047-0.1248 0.8756l0.877 0.1268zm-2.6306-0.3809c0.579 0.072 0.6903-0.805 0.1248-0.8755l-0.8766-0.1272c-0.578-0.072-0.6913 0.805-0.1248 0.8755l0.8766 0.1272zm-2.6298-0.3813c0.5783 0.072 0.6913-0.8046 0.1247-0.8755l-0.8766-0.1269c-0.5783-0.072-0.6913 0.8047-0.1247 0.8756l0.8766 0.1268zm-2.6302-0.3809c0.5783 0.072 0.6913-0.805 0.1247-0.8755l-0.8766-0.1272c-0.5779-0.072-0.6913 0.805-0.1247 0.8755l0.8766 0.1272zm-2.6298-0.3812c0.5782 0.072 0.6913-0.8047 0.1247-0.8756l-0.8766-0.1268c-0.5783-0.072-0.6913 0.8047-0.1248 0.8755l0.8767 0.1269zm-2.6302-0.3809c0.5782 0.072 0.6913-0.8051 0.1247-0.8756l-0.8766-0.1272c-0.5779-0.072-0.6913 0.8051-0.1247 0.8756l0.8766 0.1272zm-2.6299-0.3813c0.5783 0.072 0.6913-0.8047 0.1247-0.8755l-0.8766-0.1269c-0.5782-0.072-0.6913 0.8047-0.1247 0.8756l0.8766 0.1268zm-2.6302-0.3809c0.5783 0.072 0.6913-0.805 0.1248-0.8755l-0.8767-0.1269c-0.5779-0.072-0.6913 0.8047-0.1247 0.8756l0.8766 0.1268zm-2.6298-0.3809c0.5783 0.072 0.6913-0.8047 0.1247-0.8755l-0.8766-0.1269c-0.5783-0.072-0.6913 0.805-0.1247 0.8756l0.8766 0.1268zm-2.6302-0.3805c0.5783 0.072 0.6913-0.8051 0.1247-0.8756l-0.8766-0.1268c-0.5779-0.072-0.6913 0.8046-0.1247 0.8755l0.8766 0.1269zm-2.6299-0.381c0.5783 0.072 0.6913-0.8046 0.1248-0.8755l-0.8766-0.1269c-0.5783-0.072-0.6913 0.8051-0.1248 0.8756l0.8766 0.1268zm-2.6302-0.3805c0.5783 0.072 0.6913-0.805 0.1248-0.8756l-0.8766-0.1268c-0.578-0.072-0.6913 0.8047-0.1248 0.8755l0.8766 0.1269zm-2.6298-0.3809c0.5783 0.072 0.6913-0.8047 0.1247-0.8756l-0.8766-0.1268c-0.5779-0.072-0.6913 0.805-0.1247 0.8755l0.8766 0.1269zm-2.6298-0.3806c0.5782 0.072 0.6913-0.805 0.1247-0.8755l-0.8766-0.1269c-0.5779-0.072-0.6913 0.8047-0.1248 0.8756l0.8767 0.1268zm-2.6299-0.3809c0.5783 0.072 0.6913-0.8046 0.1247-0.8755l-0.8766-0.1269c-0.5779-0.072-0.6913 0.8051-0.1247 0.8756l0.8766 0.1268zm-2.6298-0.3805c0.5782 0.072 0.6913-0.8051 0.1247-0.8756l-0.8766-0.1268c-0.5779-0.072-0.6913 0.8047-0.1247 0.8755l0.8766 0.1269zm-2.6299-0.3809c0.5783 0.072 0.6913-0.8047 0.1248-0.8756l-0.8767-0.1268c-0.5779-0.072-0.6913 0.805-0.1247 0.8755l0.8766 0.1269zm21.958 37.527c0.3238 0.4678 1.0474-0.037 0.7161-0.5155l-0.517-0.7197c-0.3239-0.4677-1.0474 0.037-0.7161 0.5156l0.517 0.7196zm-1.5506-2.1589c0.3239 0.4677 1.0478-0.037 0.7161-0.5155l-0.5166-0.7197c-0.3239-0.4677-1.0474 0.037-0.7161 0.5156l0.5166 0.7196zm-1.5502-2.1586c0.3239 0.4677 1.0474-0.037 0.7161-0.5155l-0.517-0.7197c-0.3238-0.4677-1.0474 0.037-0.7161 0.5156l0.517 0.7196zm-1.5505-2.1586c0.3238 0.4678 1.0477-0.037 0.7161-0.5155l-0.5166-0.7197c-0.3239-0.4677-1.0474 0.037-0.7161 0.5156l0.5166 0.7196zm-1.5502-2.1585c0.3238 0.4677 1.0474-0.037 0.7161-0.5156l-0.517-0.7196c-0.3239-0.4678-1.0474 0.037-0.7161 0.5155l0.517 0.7197zm-1.5506-2.1586c0.3239 0.4677 1.0478-0.037 0.7161-0.5156l-0.5166-0.7196c-0.3239-0.4677-1.0474 0.037-0.7161 0.5155l0.5166 0.7197zm-1.5502-2.1586c0.3239 0.4681 1.0474-0.037 0.7161-0.5156l-0.5169-0.7193c-0.3239-0.4677-1.0474 0.037-0.7161 0.5156l0.5169 0.7193zm-1.5505-2.1582c0.3238 0.4677 1.0477-0.037 0.7161-0.5156l-0.5166-0.7196c-0.3239-0.4678-1.0474 0.037-0.7161 0.5155l0.5166 0.7197zm-1.5502-2.1586c0.3238 0.4681 1.0474-0.037 0.7161-0.5156l-0.517-0.7193c-0.3239-0.4677-1.0474 0.037-0.7161 0.5156l0.517 0.7193zm-1.5506-2.1582c0.3239 0.4677 1.0478-0.037 0.7161-0.5156l-0.5166-0.7196c-0.3238-0.4678-1.0474 0.037-0.7161 0.5155l0.5166 0.7197zm-1.5498-2.1586c0.3238 0.468 1.0474-0.037 0.7161-0.5156l-0.5166-0.7193c-0.3239-0.4677-1.0474 0.037-0.7161 0.5156l0.5166 0.7193zm-1.5502-2.1583c0.3238 0.4678 1.0477-0.037 0.7161-0.5155l-0.5166-0.7197c-0.3239-0.4677-1.0474 0.037-0.7161 0.5156l0.5166 0.7196zm-1.5499-2.1585c0.3239 0.468 1.0474-0.037 0.7161-0.5156l-0.5166-0.7193c-0.3238-0.4677-1.0474 0.037-0.7161 0.5156l0.5166 0.7193zm-1.5502-2.1583c0.3239 0.4677 1.0478-0.037 0.7161-0.5155l-0.5166-0.7197c-0.3238-0.4677-1.0474 0.037-0.7161 0.5156l0.5166 0.7196zm-1.5498-2.1586c0.3239 0.4681 1.0474-0.037 0.7161-0.5155l-0.5166-0.7193c-0.3239-0.4677-1.0474 0.037-0.7161 0.5156l0.5166 0.7192zm-1.5502-2.1582c0.3239 0.4677 1.0478-0.037 0.7161-0.5155l-0.5166-0.7197c-0.3239-0.4677-1.0474 0.037-0.7161 0.5156l0.5166 0.7196zm-1.5498-2.1586c0.3238 0.4681 1.0474-0.037 0.7161-0.5155l-0.5167-0.7193c-0.3238-0.4677-1.0474 0.037-0.7161 0.5155l0.5167 0.7193zm-1.5502-2.1582c0.3238 0.4677 1.0477-0.037 0.7161-0.5155l-0.5166-0.7197c-0.3239-0.4677-1.0474 0.037-0.7161 0.5156l0.5166 0.7196zm54.612 9.2998c0.382-0.4171-0.2717-1.0102-0.6679-0.5779l-0.5811 0.6686c-0.3823 0.417 0.2714 1.0102 0.6679 0.5779l0.5811-0.6686zm-1.7433 2.0062c0.382-0.4167-0.2717-1.0102-0.6679-0.5779l-0.5811 0.669c-0.3823 0.417 0.2714 1.0102 0.6679 0.5779l0.5811-0.669zm-1.7433 2.0066c0.382-0.4171-0.2717-1.0102-0.6679-0.5779l-0.5811 0.6686c-0.3823 0.417 0.2718 1.0102 0.6679 0.5779l0.5811-0.6686zm-1.7429 2.0058c0.3819-0.4167-0.2718-1.0102-0.6679-0.5779l-0.5811 0.6686c-0.3824 0.4171 0.2717 1.0102 0.6679 0.578l0.5811-0.6687zm-1.743 2.0063c0.382-0.4171-0.2718-1.0102-0.6679-0.578l-0.5811 0.6687c-0.3823 0.417 0.2718 1.0102 0.6679 0.5779l0.5811-0.6686zm-1.7429 2.0058c0.3819-0.4167-0.2718-1.0102-0.6679-0.5779l-0.5812 0.6686c-0.3823 0.4171 0.2718 1.0102 0.668 0.5779l0.5811-0.6686zm-1.743 2.0062c0.3823-0.4174-0.2721-1.0098-0.6679-0.5779l-0.5811 0.6686c-0.382 0.4167 0.2718 1.0102 0.6679 0.578l0.5811-0.6687zm-1.7429 2.0059c0.3819-0.417-0.2722-1.0098-0.668-0.5779l-0.5811 0.6686c-0.3819 0.4171 0.2718 1.0102 0.668 0.5779l0.5811-0.6686zm-1.743 2.0062c0.382-0.417-0.2721-1.0102-0.6679-0.5779l-0.5811 0.6686c-0.382 0.4167 0.2718 1.0102 0.6679 0.5779l0.5811-0.6686zm-1.7429 2.0059c0.3819-0.4171-0.2722-1.0099-0.668-0.5779l-0.5811 0.6686c-0.3819 0.417 0.2718 1.0102 0.668 0.5779l0.5811-0.6686zm-1.743 2.0059c0.3823-0.4171-0.2718-1.0099-0.6679-0.578l-0.5808 0.6687c-0.3819 0.417 0.2718 1.0102 0.668 0.5779l0.5807-0.6686zm-1.7426 2.0058c0.382-0.417-0.2721-1.0098-0.6679-0.5779l-0.5811 0.6686c-0.382 0.4171 0.2718 1.0102 0.6679 0.5779l0.5811-0.6686zm-1.7429 2.0059c0.3823-0.4171-0.2718-1.0099-0.668-0.5779l-0.5807 0.6686c-0.382 0.417 0.2718 1.0102 0.6679 0.5779l0.5808-0.6686z" class="fil2"/>
</g>
</g>
</svg>
